M48
;DRILL file {KiCad 4.0.1-stable} date 2017/04/02 16:14:14
;FORMAT={3:3/ absolute / metric / suppress leading zeros}
FMAT,2
METRIC,TZ
T1C0.400
T2C0.762
T3C0.800
T4C0.813
T5C0.900
T6C0.914
T7C1.016
T8C1.143
T9C3.048
%
G90
G05
M71
T1
X72390Y-53340
X72390Y-59690
X72390Y-66040
X72390Y-72390
X72390Y-78740
X72390Y-85725
X72390Y-92075
X72390Y-98425
X72390Y-104775
X72390Y-111125
X72390Y-117475
X72390Y-123825
X72390Y-130175
X74478Y-56561
X78740Y-130175
X80645Y-78105
X81915Y-104140
X82779Y-117513
X83657Y-51079
X85725Y-77470
X86385Y-80201
X86690Y-81039
X87732Y-99038
X89446Y-88125
X92934Y-69972
X93152Y-100315
X93205Y-68212
X94971Y-73965
X96711Y-117513
X97790Y-128270
X100851Y-99339
X101295Y-100317
X101978Y-91973
X101978Y-92956
X103086Y-47612
X103124Y-105194
X103721Y-125692
X105550Y-74003
X106413Y-99238
X107315Y-47625
X107772Y-63754
X107801Y-101669
X107866Y-89474
X108327Y-90093
X108452Y-88871
X108826Y-98501
X109842Y-108407
X109918Y-76264
X110185Y-79136
X110739Y-79781
X111023Y-74003
X111023Y-97180
X111095Y-90932
X111138Y-77318
X111530Y-86213
X111900Y-81636
X112598Y-82715
X112709Y-83457
X112755Y-90559
X112763Y-75641
X112806Y-92226
X112840Y-63017
X112848Y-97925
X113449Y-84061
X113754Y-91084
X114186Y-89954
X114198Y-98387
X114262Y-92499
X114300Y-47625
X114910Y-93040
X114932Y-97941
X115176Y-65608
X115605Y-99120
X115631Y-99987
X115860Y-93797
X116068Y-94635
X117018Y-74727
X117056Y-75641
X117107Y-82601
X117125Y-90219
X117142Y-93132
X117218Y-78950
X117259Y-61265
X117358Y-87234
X117821Y-79400
X117945Y-60312
X117953Y-89347
X118105Y-95316
X118107Y-101511
X118537Y-88657
X118783Y-99952
X118973Y-75273
X118974Y-74422
X119164Y-107887
X119240Y-106147
X119262Y-92062
X119926Y-105664
X119960Y-113237
X120516Y-107894
X121002Y-97042
X121171Y-108496
X121269Y-99015
X121285Y-47625
X121307Y-88055
X121349Y-75654
X121424Y-97662
X122314Y-99462
X122860Y-115710
X122873Y-95555
X123050Y-107353
X123609Y-106845
X123615Y-95449
X124032Y-94825
X124428Y-106812
X124549Y-96876
X124549Y-115710
X124777Y-78867
X125260Y-101689
X125300Y-97962
X125489Y-91618
X125542Y-75683
X125692Y-96241
X125717Y-98585
X126001Y-99279
X126060Y-115621
X126075Y-108599
X126284Y-75794
X126441Y-91529
X126879Y-101049
X127013Y-96139
X127572Y-50228
X127635Y-47625
X127698Y-91872
X127927Y-96749
X127927Y-99339
X128372Y-115710
X128676Y-101025
X128708Y-99339
X128740Y-79731
X128763Y-96743
X129100Y-90822
X129260Y-88557
X129458Y-99313
X130007Y-96673
X130162Y-99581
X130226Y-106502
X130733Y-96482
X130851Y-99283
X131420Y-93111
X131541Y-96438
X131915Y-57048
X132588Y-64503
X132651Y-107353
X132898Y-68148
X132949Y-63830
X132994Y-99390
X133176Y-69706
X133528Y-79969
X133985Y-47625
X134315Y-66739
X134609Y-88480
X134950Y-67983
X134971Y-65578
X134976Y-101498
X135255Y-130175
X135310Y-88748
X135344Y-113970
X135395Y-59017
X135449Y-100214
X135494Y-108788
X135687Y-61938
X135687Y-79695
X135858Y-70469
X135942Y-88345
X135993Y-87143
X136439Y-79685
X136474Y-95910
X136596Y-88718
X136599Y-91379
X136637Y-107635
X136646Y-101503
X136677Y-94234
X136906Y-93116
X137196Y-79680
X137251Y-91846
X137287Y-115006
X137801Y-74264
X137828Y-80091
X138201Y-114935
X139212Y-101676
X139299Y-114426
X139319Y-83299
X139472Y-106135
X139586Y-107061
X139740Y-84572
X139837Y-87173
X139959Y-101209
X139967Y-95542
X140195Y-82918
X140970Y-47625
X141288Y-101765
X141605Y-130175
X141923Y-102692
X142255Y-63297
X142761Y-59055
X142875Y-75565
X144107Y-87897
X147650Y-72497
X147955Y-47625
X147955Y-130175
X148946Y-117666
X149225Y-83820
X150266Y-117704
X150495Y-59690
X153149Y-96063
X154305Y-47625
X154305Y-130175
X160655Y-47625
X160655Y-130175
X167005Y-47625
X167005Y-53340
X167005Y-59690
X167005Y-66040
X167005Y-73025
X167005Y-79375
X167005Y-85725
X167005Y-92075
X167005Y-98425
X167005Y-104775
X167005Y-111125
X167005Y-117475
X167005Y-123825
X167005Y-130175
T2
X162623Y-62357
X162623Y-64897
X162623Y-67437
X162623Y-69977
X162623Y-72517
X162623Y-75057
T3
X121857Y-70422
X126737Y-70422
T4
X82296Y-110058
X82296Y-115138
X89916Y-110058
X89916Y-115138
X147066Y-65913
X147066Y-70993
X154686Y-65913
X154686Y-70993
T5
X115570Y-52705
X118110Y-52705
X120650Y-52705
X123190Y-52705
X125730Y-52705
X131445Y-52705
X133985Y-52705
X136525Y-52705
X136959Y-122192
X137979Y-119652
X138999Y-122192
X139065Y-52705
X140019Y-119652
X141039Y-122192
X141605Y-52705
X142059Y-119652
X147320Y-52705
X149860Y-52705
X151818Y-122192
X152400Y-52705
X152838Y-119652
X153858Y-122192
X154878Y-119652
X154940Y-52705
X155898Y-122192
X156210Y-78870
X156210Y-83495
X156210Y-85495
X156210Y-87495
X156210Y-89495
X156210Y-95120
X156210Y-97285
X156210Y-101910
X156210Y-103910
X156210Y-105910
X156210Y-107910
X156210Y-113535
X156918Y-119652
X157480Y-52705
X158750Y-84495
X158750Y-86495
X158750Y-88495
X158750Y-90495
X158750Y-102910
X158750Y-104910
X158750Y-106910
X158750Y-108910
T6
X81910Y-85542
X81910Y-88082
X81910Y-90622
X81910Y-93162
X81910Y-95702
X84450Y-85542
X84450Y-88082
X84450Y-90622
X84450Y-93162
X84450Y-95702
X93264Y-85354
X93264Y-87894
X93264Y-90434
X93264Y-92974
X93264Y-95514
X95804Y-85354
X95804Y-87894
X95804Y-90434
X95804Y-92974
X95804Y-95514
X104013Y-119253
X104013Y-121793
X106553Y-119253
X106553Y-121793
X109093Y-119253
X109093Y-121793
X111633Y-119253
X111633Y-121793
X114173Y-119253
X114173Y-121793
T7
X101595Y-58369
X101600Y-51435
X104135Y-58369
X104140Y-51435
X106675Y-58369
X106680Y-51435
X109215Y-58369
X109220Y-51435
X111755Y-58369
X111760Y-51435
T8
X82042Y-120015
X82042Y-122555
X82042Y-125095
X89662Y-120015
X89662Y-125095
T9
X75565Y-50800
X75565Y-127000
X163830Y-50800
X163830Y-127000
T0
M30
