G04 #@! TF.FileFunction,Legend,Bot*
%FSLAX46Y46*%
G04 Gerber Fmt 4.6, Leading zero omitted, Abs format (unit mm)*
G04 Created by KiCad (PCBNEW 4.0.1-stable) date 2017/04/02 21:29:11*
%MOMM*%
G01*
G04 APERTURE LIST*
%ADD10C,0.100000*%
%ADD11C,0.099060*%
%ADD12C,0.127000*%
%ADD13C,0.150000*%
%ADD14C,0.200000*%
%ADD15C,0.109220*%
%ADD16C,0.114300*%
%ADD17C,0.050000*%
G04 APERTURE END LIST*
D10*
D11*
X134103145Y-93428186D02*
G75*
G03X134103145Y-93428186I-127000J0D01*
G01*
X133167922Y-94236409D02*
X133886342Y-93517989D01*
X133886342Y-93517989D02*
X132808711Y-92440358D01*
X132808711Y-92440358D02*
X132090291Y-93158778D01*
X131371870Y-93877199D02*
X130653450Y-94595619D01*
X130653450Y-94595619D02*
X131731081Y-95673250D01*
X131731081Y-95673250D02*
X132449501Y-94954830D01*
X139029440Y-116987320D02*
G75*
G03X139029440Y-116987320I-127000J0D01*
G01*
X137759440Y-116987320D02*
X138775440Y-116987320D01*
X138775440Y-116987320D02*
X138775440Y-115463320D01*
X138775440Y-115463320D02*
X137759440Y-115463320D01*
X136743440Y-115463320D02*
X135727440Y-115463320D01*
X135727440Y-115463320D02*
X135727440Y-116987320D01*
X135727440Y-116987320D02*
X136743440Y-116987320D01*
X141305280Y-105872280D02*
G75*
G03X141305280Y-105872280I-127000J0D01*
G01*
X142321280Y-105872280D02*
X141305280Y-105872280D01*
X141305280Y-105872280D02*
X141305280Y-107396280D01*
X141305280Y-107396280D02*
X142321280Y-107396280D01*
X143337280Y-107396280D02*
X144353280Y-107396280D01*
X144353280Y-107396280D02*
X144353280Y-105872280D01*
X144353280Y-105872280D02*
X143337280Y-105872280D01*
X144536160Y-103738680D02*
G75*
G03X144536160Y-103738680I-127000J0D01*
G01*
X145552160Y-103738680D02*
X144536160Y-103738680D01*
X144536160Y-103738680D02*
X144536160Y-105262680D01*
X144536160Y-105262680D02*
X145552160Y-105262680D01*
X146568160Y-105262680D02*
X147584160Y-105262680D01*
X147584160Y-105262680D02*
X147584160Y-103738680D01*
X147584160Y-103738680D02*
X146568160Y-103738680D01*
X147629880Y-105933240D02*
G75*
G03X147629880Y-105933240I-127000J0D01*
G01*
X148645880Y-105933240D02*
X147629880Y-105933240D01*
X147629880Y-105933240D02*
X147629880Y-107457240D01*
X147629880Y-107457240D02*
X148645880Y-107457240D01*
X149661880Y-107457240D02*
X150677880Y-107457240D01*
X150677880Y-107457240D02*
X150677880Y-105933240D01*
X150677880Y-105933240D02*
X149661880Y-105933240D01*
X140162280Y-103738680D02*
G75*
G03X140162280Y-103738680I-127000J0D01*
G01*
X141178280Y-103738680D02*
X140162280Y-103738680D01*
X140162280Y-103738680D02*
X140162280Y-105262680D01*
X140162280Y-105262680D02*
X141178280Y-105262680D01*
X142194280Y-105262680D02*
X143210280Y-105262680D01*
X143210280Y-105262680D02*
X143210280Y-103738680D01*
X143210280Y-103738680D02*
X142194280Y-103738680D01*
D12*
X136871900Y-86321900D02*
X139157900Y-86321900D01*
X139157900Y-86321900D02*
X139157900Y-85051900D01*
X139157900Y-85051900D02*
X136871900Y-85051900D01*
X136871900Y-85051900D02*
X136871900Y-86321900D01*
X106807000Y-52781200D02*
X104521000Y-52781200D01*
X104521000Y-52781200D02*
X104521000Y-54051200D01*
X104521000Y-54051200D02*
X106807000Y-54051200D01*
X106807000Y-54051200D02*
X106807000Y-52781200D01*
X106527600Y-55829200D02*
X104241600Y-55829200D01*
X104241600Y-55829200D02*
X104241600Y-57099200D01*
X104241600Y-57099200D02*
X106527600Y-57099200D01*
X106527600Y-57099200D02*
X106527600Y-55829200D01*
X113538000Y-126873000D02*
X113538000Y-129159000D01*
X113538000Y-129159000D02*
X114808000Y-129159000D01*
X114808000Y-129159000D02*
X114808000Y-126873000D01*
X114808000Y-126873000D02*
X113538000Y-126873000D01*
X110998000Y-126873000D02*
X110998000Y-129159000D01*
X110998000Y-129159000D02*
X112268000Y-129159000D01*
X112268000Y-129159000D02*
X112268000Y-126873000D01*
X112268000Y-126873000D02*
X110998000Y-126873000D01*
X108458000Y-126869000D02*
X108458000Y-129155000D01*
X108458000Y-129155000D02*
X109728000Y-129155000D01*
X109728000Y-129155000D02*
X109728000Y-126869000D01*
X109728000Y-126869000D02*
X108458000Y-126869000D01*
X105918000Y-126869000D02*
X105918000Y-129155000D01*
X105918000Y-129155000D02*
X107188000Y-129155000D01*
X107188000Y-129155000D02*
X107188000Y-126869000D01*
X107188000Y-126869000D02*
X105918000Y-126869000D01*
X105918000Y-123317000D02*
X105918000Y-125603000D01*
X105918000Y-125603000D02*
X107188000Y-125603000D01*
X107188000Y-125603000D02*
X107188000Y-123317000D01*
X107188000Y-123317000D02*
X105918000Y-123317000D01*
X108458000Y-123313000D02*
X108458000Y-125599000D01*
X108458000Y-125599000D02*
X109728000Y-125599000D01*
X109728000Y-125599000D02*
X109728000Y-123313000D01*
X109728000Y-123313000D02*
X108458000Y-123313000D01*
X110998000Y-123317000D02*
X110998000Y-125603000D01*
X110998000Y-125603000D02*
X112268000Y-125603000D01*
X112268000Y-125603000D02*
X112268000Y-123317000D01*
X112268000Y-123317000D02*
X110998000Y-123317000D01*
X113538000Y-123321000D02*
X113538000Y-125607000D01*
X113538000Y-125607000D02*
X114808000Y-125607000D01*
X114808000Y-125607000D02*
X114808000Y-123321000D01*
X114808000Y-123321000D02*
X113538000Y-123321000D01*
X105918000Y-115443000D02*
X105918000Y-117729000D01*
X105918000Y-117729000D02*
X107188000Y-117729000D01*
X107188000Y-117729000D02*
X107188000Y-115443000D01*
X107188000Y-115443000D02*
X105918000Y-115443000D01*
X108458000Y-115443000D02*
X108458000Y-117729000D01*
X108458000Y-117729000D02*
X109728000Y-117729000D01*
X109728000Y-117729000D02*
X109728000Y-115443000D01*
X109728000Y-115443000D02*
X108458000Y-115443000D01*
X110998000Y-115443000D02*
X110998000Y-117729000D01*
X110998000Y-117729000D02*
X112268000Y-117729000D01*
X112268000Y-117729000D02*
X112268000Y-115443000D01*
X112268000Y-115443000D02*
X110998000Y-115443000D01*
X113538000Y-115443000D02*
X113538000Y-117729000D01*
X113538000Y-117729000D02*
X114808000Y-117729000D01*
X114808000Y-117729000D02*
X114808000Y-115443000D01*
X114808000Y-115443000D02*
X113538000Y-115443000D01*
X107188000Y-114173000D02*
X107188000Y-111887000D01*
X107188000Y-111887000D02*
X105918000Y-111887000D01*
X105918000Y-111887000D02*
X105918000Y-114173000D01*
X105918000Y-114173000D02*
X107188000Y-114173000D01*
X109728000Y-114173000D02*
X109728000Y-111887000D01*
X109728000Y-111887000D02*
X108458000Y-111887000D01*
X108458000Y-111887000D02*
X108458000Y-114173000D01*
X108458000Y-114173000D02*
X109728000Y-114173000D01*
X112268000Y-114173000D02*
X112268000Y-111887000D01*
X112268000Y-111887000D02*
X110998000Y-111887000D01*
X110998000Y-111887000D02*
X110998000Y-114173000D01*
X110998000Y-114173000D02*
X112268000Y-114173000D01*
X114808000Y-114173000D02*
X114808000Y-111887000D01*
X114808000Y-111887000D02*
X113538000Y-111887000D01*
X113538000Y-111887000D02*
X113538000Y-114173000D01*
X113538000Y-114173000D02*
X114808000Y-114173000D01*
X126873000Y-73248520D02*
X124587000Y-73248520D01*
X124587000Y-73248520D02*
X124587000Y-74518520D01*
X124587000Y-74518520D02*
X126873000Y-74518520D01*
X126873000Y-74518520D02*
X126873000Y-73248520D01*
X126375160Y-56494680D02*
X126375160Y-54208680D01*
X126375160Y-54208680D02*
X125105160Y-54208680D01*
X125105160Y-54208680D02*
X125105160Y-56494680D01*
X125105160Y-56494680D02*
X126375160Y-56494680D01*
X123814840Y-56489600D02*
X123814840Y-54203600D01*
X123814840Y-54203600D02*
X122544840Y-54203600D01*
X122544840Y-54203600D02*
X122544840Y-56489600D01*
X122544840Y-56489600D02*
X123814840Y-56489600D01*
X158109920Y-56469280D02*
X158109920Y-54183280D01*
X158109920Y-54183280D02*
X156839920Y-54183280D01*
X156839920Y-54183280D02*
X156839920Y-56469280D01*
X156839920Y-56469280D02*
X158109920Y-56469280D01*
X121290080Y-56484520D02*
X121290080Y-54198520D01*
X121290080Y-54198520D02*
X120020080Y-54198520D01*
X120020080Y-54198520D02*
X120020080Y-56484520D01*
X120020080Y-56484520D02*
X121290080Y-56484520D01*
X155575000Y-56484520D02*
X155575000Y-54198520D01*
X155575000Y-54198520D02*
X154305000Y-54198520D01*
X154305000Y-54198520D02*
X154305000Y-56484520D01*
X154305000Y-56484520D02*
X155575000Y-56484520D01*
X153035000Y-56479440D02*
X153035000Y-54193440D01*
X153035000Y-54193440D02*
X151765000Y-54193440D01*
X151765000Y-54193440D02*
X151765000Y-56479440D01*
X151765000Y-56479440D02*
X153035000Y-56479440D01*
D13*
X116636500Y-78092000D02*
X117286500Y-78092000D01*
X116636500Y-92342000D02*
X117396500Y-92342000D01*
X130886500Y-92342000D02*
X130126500Y-92342000D01*
X130886500Y-78092000D02*
X130126500Y-78092000D01*
X116636500Y-78092000D02*
X116636500Y-78852000D01*
X130886500Y-78092000D02*
X130886500Y-78852000D01*
X130886500Y-92342000D02*
X130886500Y-91582000D01*
X116636500Y-92342000D02*
X116636500Y-91582000D01*
X117286500Y-78092000D02*
X117286500Y-76567000D01*
X140462000Y-113792000D02*
X141224000Y-113792000D01*
X141224000Y-113792000D02*
X141224000Y-112268000D01*
X141224000Y-112268000D02*
X140462000Y-112268000D01*
X151638000Y-115316000D02*
X151638000Y-110744000D01*
X151638000Y-110744000D02*
X140462000Y-110744000D01*
X140462000Y-110744000D02*
X140462000Y-115316000D01*
X140462000Y-115316000D02*
X151638000Y-115316000D01*
D12*
X119480700Y-130414300D02*
X119480700Y-130914300D01*
X119480700Y-130914300D02*
X119980700Y-130914300D01*
X119980700Y-130914300D02*
X129980700Y-130914300D01*
X129980700Y-130914300D02*
X130480700Y-130914300D01*
X130480700Y-130914300D02*
X130480700Y-130414300D01*
X119480700Y-131214300D02*
X119480700Y-131714300D01*
X119480700Y-131714300D02*
X119980700Y-131714300D01*
X119980700Y-131714300D02*
X129980700Y-131714300D01*
X129980700Y-131714300D02*
X130480700Y-131714300D01*
X130480700Y-131714300D02*
X130480700Y-131214300D01*
X130480700Y-130114300D02*
X119480700Y-130114300D01*
X119980700Y-135714300D02*
X129980700Y-135714300D01*
X119480700Y-130114300D02*
X119480700Y-130414300D01*
X119480700Y-130414300D02*
G75*
G03X119980700Y-130914300I500000J0D01*
G01*
X119480700Y-130914300D02*
X119480700Y-131214300D01*
X119480700Y-131214300D02*
G75*
G03X119980700Y-131714300I500000J0D01*
G01*
X119480700Y-131714300D02*
X119480700Y-135214300D01*
X119480700Y-135214300D02*
G75*
G03X119980700Y-135714300I500000J0D01*
G01*
X130480700Y-130114300D02*
X130480700Y-130414300D01*
X130480700Y-130414300D02*
G75*
G02X129980700Y-130914300I-500000J0D01*
G01*
X130480700Y-130914300D02*
X130480700Y-131214300D01*
X130480700Y-131214300D02*
G75*
G02X129980700Y-131714300I-500000J0D01*
G01*
X130480700Y-131714300D02*
X130480700Y-135214300D01*
X130480700Y-135214300D02*
G75*
G02X129980700Y-135714300I-500000J0D01*
G01*
X131030700Y-114164300D02*
X131480700Y-114164300D01*
X131480700Y-114164300D02*
X131480700Y-114714300D01*
X119480700Y-114164300D02*
X117630700Y-114164300D01*
X117630700Y-114164300D02*
X117630700Y-128314300D01*
X131480700Y-123064300D02*
X131480700Y-124264300D01*
X131480700Y-125564300D02*
X131480700Y-127414300D01*
D14*
X121980700Y-112914300D02*
G75*
G03X121980700Y-112914300I-250000J0D01*
G01*
D15*
X130344871Y-96234559D02*
X130378569Y-96234559D01*
X130445963Y-96200861D01*
X130479660Y-96167164D01*
X130513358Y-96099770D01*
X130513358Y-96032375D01*
X130496509Y-95981828D01*
X130445964Y-95897585D01*
X130395418Y-95847039D01*
X130311174Y-95796493D01*
X130260628Y-95779645D01*
X130193233Y-95779645D01*
X130125838Y-95813342D01*
X130092141Y-95847039D01*
X130058444Y-95914434D01*
X130058444Y-95948132D01*
X129906805Y-96032375D02*
X129687773Y-96251407D01*
X129940503Y-96268256D01*
X129889957Y-96318802D01*
X129873108Y-96369348D01*
X129873109Y-96403046D01*
X129889957Y-96453592D01*
X129974200Y-96537835D01*
X130024747Y-96554683D01*
X130058444Y-96554684D01*
X130108990Y-96537834D01*
X130210081Y-96436743D01*
X130226931Y-96386197D01*
X130226930Y-96352500D01*
X133830060Y-94246615D02*
X133796363Y-94246615D01*
X133745816Y-94263464D01*
X133661573Y-94347707D01*
X133644724Y-94398254D01*
X133644725Y-94431951D01*
X133661573Y-94482497D01*
X133695270Y-94516194D01*
X133762665Y-94549891D01*
X134167033Y-94549891D01*
X133948000Y-94768924D01*
X133762665Y-94886864D02*
X133762665Y-94920562D01*
X133796363Y-94920562D01*
X133796363Y-94886864D01*
X133762665Y-94886864D01*
X133796363Y-94920562D01*
X133324601Y-94752075D02*
X133290903Y-94752075D01*
X133240357Y-94768923D01*
X133156113Y-94853167D01*
X133139264Y-94903713D01*
X133139265Y-94937411D01*
X133156113Y-94987957D01*
X133189811Y-95021654D01*
X133257206Y-95055351D01*
X133661573Y-95055351D01*
X133442540Y-95274384D01*
X132903384Y-95341779D02*
X133139264Y-95577660D01*
X133055022Y-95190140D02*
X133240357Y-95375476D01*
X133257206Y-95426022D01*
X133240357Y-95476567D01*
X133189811Y-95527114D01*
X133139265Y-95543963D01*
X133105567Y-95543963D01*
X132667503Y-95678752D02*
X132785443Y-95560811D01*
X132970778Y-95746146D02*
X132616956Y-95392324D01*
X132448469Y-95560811D01*
X136008956Y-114961307D02*
X136032784Y-114985135D01*
X136104267Y-115008962D01*
X136151922Y-115008962D01*
X136223405Y-114985135D01*
X136271060Y-114937480D01*
X136294888Y-114889824D01*
X136318716Y-114794514D01*
X136318716Y-114723031D01*
X136294888Y-114627720D01*
X136271060Y-114580065D01*
X136223405Y-114532410D01*
X136151922Y-114508582D01*
X136104267Y-114508582D01*
X136032784Y-114532410D01*
X136008956Y-114556238D01*
X135580059Y-114675376D02*
X135580059Y-115008962D01*
X135699197Y-114484755D02*
X135818336Y-114842169D01*
X135508576Y-114842169D01*
X138063332Y-117434662D02*
X138015677Y-117434662D01*
X137968022Y-117458490D01*
X137944194Y-117482318D01*
X137920367Y-117529973D01*
X137896539Y-117625283D01*
X137896539Y-117744421D01*
X137920367Y-117839732D01*
X137944194Y-117887387D01*
X137968022Y-117911215D01*
X138015677Y-117935042D01*
X138063332Y-117935042D01*
X138110988Y-117911215D01*
X138134815Y-117887387D01*
X138158643Y-117839732D01*
X138182471Y-117744421D01*
X138182471Y-117625283D01*
X138158643Y-117529973D01*
X138134815Y-117482318D01*
X138110988Y-117458490D01*
X138063332Y-117434662D01*
X137682091Y-117887387D02*
X137658263Y-117911215D01*
X137682091Y-117935042D01*
X137705919Y-117911215D01*
X137682091Y-117887387D01*
X137682091Y-117935042D01*
X137181711Y-117935042D02*
X137467643Y-117935042D01*
X137324677Y-117935042D02*
X137324677Y-117434662D01*
X137372332Y-117506145D01*
X137419987Y-117553800D01*
X137467643Y-117577628D01*
X136752814Y-117601456D02*
X136752814Y-117935042D01*
X136967263Y-117601456D02*
X136967263Y-117863560D01*
X136943435Y-117911215D01*
X136895780Y-117935042D01*
X136824297Y-117935042D01*
X136776642Y-117911215D01*
X136752814Y-117887387D01*
X136347745Y-117672939D02*
X136514538Y-117672939D01*
X136514538Y-117935042D02*
X136514538Y-117434662D01*
X136276262Y-117434662D01*
X140651592Y-108138867D02*
X140675420Y-108162695D01*
X140746903Y-108186522D01*
X140794558Y-108186522D01*
X140866041Y-108162695D01*
X140913696Y-108115040D01*
X140937524Y-108067384D01*
X140961352Y-107972074D01*
X140961352Y-107900591D01*
X140937524Y-107805280D01*
X140913696Y-107757625D01*
X140866041Y-107709970D01*
X140794558Y-107686142D01*
X140746903Y-107686142D01*
X140675420Y-107709970D01*
X140651592Y-107733798D01*
X140175040Y-108186522D02*
X140460972Y-108186522D01*
X140318006Y-108186522D02*
X140318006Y-107686142D01*
X140365661Y-107757625D01*
X140413316Y-107805280D01*
X140460972Y-107829108D01*
X139698488Y-108186522D02*
X139984420Y-108186522D01*
X139841454Y-108186522D02*
X139841454Y-107686142D01*
X139889109Y-107757625D01*
X139936764Y-107805280D01*
X139984420Y-107829108D01*
X141009732Y-108417662D02*
X140962077Y-108417662D01*
X140914422Y-108441490D01*
X140890594Y-108465318D01*
X140866767Y-108512973D01*
X140842939Y-108608283D01*
X140842939Y-108727421D01*
X140866767Y-108822732D01*
X140890594Y-108870387D01*
X140914422Y-108894215D01*
X140962077Y-108918042D01*
X141009732Y-108918042D01*
X141057388Y-108894215D01*
X141081215Y-108870387D01*
X141105043Y-108822732D01*
X141128871Y-108727421D01*
X141128871Y-108608283D01*
X141105043Y-108512973D01*
X141081215Y-108465318D01*
X141057388Y-108441490D01*
X141009732Y-108417662D01*
X140628491Y-108870387D02*
X140604663Y-108894215D01*
X140628491Y-108918042D01*
X140652319Y-108894215D01*
X140628491Y-108870387D01*
X140628491Y-108918042D01*
X140128111Y-108918042D02*
X140414043Y-108918042D01*
X140271077Y-108918042D02*
X140271077Y-108417662D01*
X140318732Y-108489145D01*
X140366387Y-108536800D01*
X140414043Y-108560628D01*
X139699214Y-108584456D02*
X139699214Y-108918042D01*
X139913663Y-108584456D02*
X139913663Y-108846560D01*
X139889835Y-108894215D01*
X139842180Y-108918042D01*
X139770697Y-108918042D01*
X139723042Y-108894215D01*
X139699214Y-108870387D01*
X139294145Y-108655939D02*
X139460938Y-108655939D01*
X139460938Y-108918042D02*
X139460938Y-108417662D01*
X139222662Y-108417662D01*
X145665552Y-102621987D02*
X145689380Y-102645815D01*
X145760863Y-102669642D01*
X145808518Y-102669642D01*
X145880001Y-102645815D01*
X145927656Y-102598160D01*
X145951484Y-102550504D01*
X145975312Y-102455194D01*
X145975312Y-102383711D01*
X145951484Y-102288400D01*
X145927656Y-102240745D01*
X145880001Y-102193090D01*
X145808518Y-102169262D01*
X145760863Y-102169262D01*
X145689380Y-102193090D01*
X145665552Y-102216918D01*
X145189000Y-102669642D02*
X145474932Y-102669642D01*
X145331966Y-102669642D02*
X145331966Y-102169262D01*
X145379621Y-102240745D01*
X145427276Y-102288400D01*
X145474932Y-102312228D01*
X144998380Y-102216918D02*
X144974552Y-102193090D01*
X144926897Y-102169262D01*
X144807759Y-102169262D01*
X144760103Y-102193090D01*
X144736276Y-102216918D01*
X144712448Y-102264573D01*
X144712448Y-102312228D01*
X144736276Y-102383711D01*
X145022207Y-102669642D01*
X144712448Y-102669642D01*
X146074492Y-102824582D02*
X146026837Y-102824582D01*
X145979182Y-102848410D01*
X145955354Y-102872238D01*
X145931527Y-102919893D01*
X145907699Y-103015203D01*
X145907699Y-103134341D01*
X145931527Y-103229652D01*
X145955354Y-103277307D01*
X145979182Y-103301135D01*
X146026837Y-103324962D01*
X146074492Y-103324962D01*
X146122148Y-103301135D01*
X146145975Y-103277307D01*
X146169803Y-103229652D01*
X146193631Y-103134341D01*
X146193631Y-103015203D01*
X146169803Y-102919893D01*
X146145975Y-102872238D01*
X146122148Y-102848410D01*
X146074492Y-102824582D01*
X145693251Y-103277307D02*
X145669423Y-103301135D01*
X145693251Y-103324962D01*
X145717079Y-103301135D01*
X145693251Y-103277307D01*
X145693251Y-103324962D01*
X145192871Y-103324962D02*
X145478803Y-103324962D01*
X145335837Y-103324962D02*
X145335837Y-102824582D01*
X145383492Y-102896065D01*
X145431147Y-102943720D01*
X145478803Y-102967548D01*
X144763974Y-102991376D02*
X144763974Y-103324962D01*
X144978423Y-102991376D02*
X144978423Y-103253480D01*
X144954595Y-103301135D01*
X144906940Y-103324962D01*
X144835457Y-103324962D01*
X144787802Y-103301135D01*
X144763974Y-103277307D01*
X144358905Y-103062859D02*
X144525698Y-103062859D01*
X144525698Y-103324962D02*
X144525698Y-102824582D01*
X144287422Y-102824582D01*
X150323912Y-104765747D02*
X150347740Y-104789575D01*
X150419223Y-104813402D01*
X150466878Y-104813402D01*
X150538361Y-104789575D01*
X150586016Y-104741920D01*
X150609844Y-104694264D01*
X150633672Y-104598954D01*
X150633672Y-104527471D01*
X150609844Y-104432160D01*
X150586016Y-104384505D01*
X150538361Y-104336850D01*
X150466878Y-104313022D01*
X150419223Y-104313022D01*
X150347740Y-104336850D01*
X150323912Y-104360678D01*
X149847360Y-104813402D02*
X150133292Y-104813402D01*
X149990326Y-104813402D02*
X149990326Y-104313022D01*
X150037981Y-104384505D01*
X150085636Y-104432160D01*
X150133292Y-104455988D01*
X149680567Y-104313022D02*
X149370808Y-104313022D01*
X149537601Y-104503643D01*
X149466119Y-104503643D01*
X149418463Y-104527471D01*
X149394636Y-104551299D01*
X149370808Y-104598954D01*
X149370808Y-104718092D01*
X149394636Y-104765747D01*
X149418463Y-104789575D01*
X149466119Y-104813402D01*
X149609084Y-104813402D01*
X149656740Y-104789575D01*
X149680567Y-104765747D01*
X150763332Y-105085182D02*
X150715677Y-105085182D01*
X150668022Y-105109010D01*
X150644194Y-105132838D01*
X150620367Y-105180493D01*
X150596539Y-105275803D01*
X150596539Y-105394941D01*
X150620367Y-105490252D01*
X150644194Y-105537907D01*
X150668022Y-105561735D01*
X150715677Y-105585562D01*
X150763332Y-105585562D01*
X150810988Y-105561735D01*
X150834815Y-105537907D01*
X150858643Y-105490252D01*
X150882471Y-105394941D01*
X150882471Y-105275803D01*
X150858643Y-105180493D01*
X150834815Y-105132838D01*
X150810988Y-105109010D01*
X150763332Y-105085182D01*
X150382091Y-105537907D02*
X150358263Y-105561735D01*
X150382091Y-105585562D01*
X150405919Y-105561735D01*
X150382091Y-105537907D01*
X150382091Y-105585562D01*
X149881711Y-105585562D02*
X150167643Y-105585562D01*
X150024677Y-105585562D02*
X150024677Y-105085182D01*
X150072332Y-105156665D01*
X150119987Y-105204320D01*
X150167643Y-105228148D01*
X149452814Y-105251976D02*
X149452814Y-105585562D01*
X149667263Y-105251976D02*
X149667263Y-105514080D01*
X149643435Y-105561735D01*
X149595780Y-105585562D01*
X149524297Y-105585562D01*
X149476642Y-105561735D01*
X149452814Y-105537907D01*
X149047745Y-105323459D02*
X149214538Y-105323459D01*
X149214538Y-105585562D02*
X149214538Y-105085182D01*
X148976262Y-105085182D01*
X140910672Y-102637227D02*
X140934500Y-102661055D01*
X141005983Y-102684882D01*
X141053638Y-102684882D01*
X141125121Y-102661055D01*
X141172776Y-102613400D01*
X141196604Y-102565744D01*
X141220432Y-102470434D01*
X141220432Y-102398951D01*
X141196604Y-102303640D01*
X141172776Y-102255985D01*
X141125121Y-102208330D01*
X141053638Y-102184502D01*
X141005983Y-102184502D01*
X140934500Y-102208330D01*
X140910672Y-102232158D01*
X140434120Y-102684882D02*
X140720052Y-102684882D01*
X140577086Y-102684882D02*
X140577086Y-102184502D01*
X140624741Y-102255985D01*
X140672396Y-102303640D01*
X140720052Y-102327468D01*
X140005223Y-102351296D02*
X140005223Y-102684882D01*
X140124361Y-102160675D02*
X140243500Y-102518089D01*
X139933740Y-102518089D01*
X141350092Y-102855062D02*
X141302437Y-102855062D01*
X141254782Y-102878890D01*
X141230954Y-102902718D01*
X141207127Y-102950373D01*
X141183299Y-103045683D01*
X141183299Y-103164821D01*
X141207127Y-103260132D01*
X141230954Y-103307787D01*
X141254782Y-103331615D01*
X141302437Y-103355442D01*
X141350092Y-103355442D01*
X141397748Y-103331615D01*
X141421575Y-103307787D01*
X141445403Y-103260132D01*
X141469231Y-103164821D01*
X141469231Y-103045683D01*
X141445403Y-102950373D01*
X141421575Y-102902718D01*
X141397748Y-102878890D01*
X141350092Y-102855062D01*
X140968851Y-103307787D02*
X140945023Y-103331615D01*
X140968851Y-103355442D01*
X140992679Y-103331615D01*
X140968851Y-103307787D01*
X140968851Y-103355442D01*
X140468471Y-103355442D02*
X140754403Y-103355442D01*
X140611437Y-103355442D02*
X140611437Y-102855062D01*
X140659092Y-102926545D01*
X140706747Y-102974200D01*
X140754403Y-102998028D01*
X140039574Y-103021856D02*
X140039574Y-103355442D01*
X140254023Y-103021856D02*
X140254023Y-103283960D01*
X140230195Y-103331615D01*
X140182540Y-103355442D01*
X140111057Y-103355442D01*
X140063402Y-103331615D01*
X140039574Y-103307787D01*
X139634505Y-103093339D02*
X139801298Y-103093339D01*
X139801298Y-103355442D02*
X139801298Y-102855062D01*
X139563022Y-102855062D01*
D16*
X138091100Y-84773710D02*
X138243500Y-84531805D01*
X138352357Y-84773710D02*
X138352357Y-84265710D01*
X138178185Y-84265710D01*
X138134643Y-84289900D01*
X138112871Y-84314090D01*
X138091100Y-84362471D01*
X138091100Y-84435043D01*
X138112871Y-84483424D01*
X138134643Y-84507614D01*
X138178185Y-84531805D01*
X138352357Y-84531805D01*
X137655671Y-84773710D02*
X137916928Y-84773710D01*
X137786300Y-84773710D02*
X137786300Y-84265710D01*
X137829843Y-84338281D01*
X137873385Y-84386662D01*
X137916928Y-84410852D01*
X138488057Y-87262910D02*
X138749314Y-87262910D01*
X138618686Y-87262910D02*
X138618686Y-86754910D01*
X138662229Y-86827481D01*
X138705771Y-86875862D01*
X138749314Y-86900052D01*
X138205028Y-86754910D02*
X138161485Y-86754910D01*
X138117942Y-86779100D01*
X138096171Y-86803290D01*
X138074400Y-86851671D01*
X138052628Y-86948433D01*
X138052628Y-87069386D01*
X138074400Y-87166148D01*
X138096171Y-87214529D01*
X138117942Y-87238719D01*
X138161485Y-87262910D01*
X138205028Y-87262910D01*
X138248571Y-87238719D01*
X138270342Y-87214529D01*
X138292114Y-87166148D01*
X138313885Y-87069386D01*
X138313885Y-86948433D01*
X138292114Y-86851671D01*
X138270342Y-86803290D01*
X138248571Y-86779100D01*
X138205028Y-86754910D01*
X137769599Y-86754910D02*
X137726056Y-86754910D01*
X137682513Y-86779100D01*
X137660742Y-86803290D01*
X137638971Y-86851671D01*
X137617199Y-86948433D01*
X137617199Y-87069386D01*
X137638971Y-87166148D01*
X137660742Y-87214529D01*
X137682513Y-87238719D01*
X137726056Y-87262910D01*
X137769599Y-87262910D01*
X137813142Y-87238719D01*
X137834913Y-87214529D01*
X137856685Y-87166148D01*
X137878456Y-87069386D01*
X137878456Y-86948433D01*
X137856685Y-86851671D01*
X137834913Y-86803290D01*
X137813142Y-86779100D01*
X137769599Y-86754910D01*
X137421256Y-87262910D02*
X137421256Y-86754910D01*
X137377713Y-87069386D02*
X137247084Y-87262910D01*
X137247084Y-86924243D02*
X137421256Y-87117767D01*
X103276400Y-54001610D02*
X103428800Y-53759705D01*
X103537657Y-54001610D02*
X103537657Y-53493610D01*
X103363485Y-53493610D01*
X103319943Y-53517800D01*
X103298171Y-53541990D01*
X103276400Y-53590371D01*
X103276400Y-53662943D01*
X103298171Y-53711324D01*
X103319943Y-53735514D01*
X103363485Y-53759705D01*
X103537657Y-53759705D01*
X102884514Y-53662943D02*
X102884514Y-54001610D01*
X102993371Y-53469419D02*
X103102228Y-53832276D01*
X102819200Y-53832276D01*
X103472343Y-53188810D02*
X103733600Y-53188810D01*
X103602972Y-53188810D02*
X103602972Y-52680810D01*
X103646515Y-52753381D01*
X103690057Y-52801762D01*
X103733600Y-52825952D01*
X103189314Y-52680810D02*
X103145771Y-52680810D01*
X103102228Y-52705000D01*
X103080457Y-52729190D01*
X103058686Y-52777571D01*
X103036914Y-52874333D01*
X103036914Y-52995286D01*
X103058686Y-53092048D01*
X103080457Y-53140429D01*
X103102228Y-53164619D01*
X103145771Y-53188810D01*
X103189314Y-53188810D01*
X103232857Y-53164619D01*
X103254628Y-53140429D01*
X103276400Y-53092048D01*
X103298171Y-52995286D01*
X103298171Y-52874333D01*
X103276400Y-52777571D01*
X103254628Y-52729190D01*
X103232857Y-52705000D01*
X103189314Y-52680810D01*
X102840971Y-53188810D02*
X102840971Y-52680810D01*
X102797428Y-52995286D02*
X102666799Y-53188810D01*
X102666799Y-52850143D02*
X102840971Y-53043667D01*
X103163915Y-57113110D02*
X103316315Y-56871205D01*
X103425172Y-57113110D02*
X103425172Y-56605110D01*
X103251000Y-56605110D01*
X103207458Y-56629300D01*
X103185686Y-56653490D01*
X103163915Y-56701871D01*
X103163915Y-56774443D01*
X103185686Y-56822824D01*
X103207458Y-56847014D01*
X103251000Y-56871205D01*
X103425172Y-56871205D01*
X102728486Y-57113110D02*
X102989743Y-57113110D01*
X102859115Y-57113110D02*
X102859115Y-56605110D01*
X102902658Y-56677681D01*
X102946200Y-56726062D01*
X102989743Y-56750252D01*
X102554314Y-56653490D02*
X102532543Y-56629300D01*
X102489000Y-56605110D01*
X102380143Y-56605110D01*
X102336600Y-56629300D01*
X102314829Y-56653490D01*
X102293057Y-56701871D01*
X102293057Y-56750252D01*
X102314829Y-56822824D01*
X102576086Y-57113110D01*
X102293057Y-57113110D01*
X103205643Y-56389210D02*
X103466900Y-56389210D01*
X103336272Y-56389210D02*
X103336272Y-55881210D01*
X103379815Y-55953781D01*
X103423357Y-56002162D01*
X103466900Y-56026352D01*
X102922614Y-55881210D02*
X102879071Y-55881210D01*
X102835528Y-55905400D01*
X102813757Y-55929590D01*
X102791986Y-55977971D01*
X102770214Y-56074733D01*
X102770214Y-56195686D01*
X102791986Y-56292448D01*
X102813757Y-56340829D01*
X102835528Y-56365019D01*
X102879071Y-56389210D01*
X102922614Y-56389210D01*
X102966157Y-56365019D01*
X102987928Y-56340829D01*
X103009700Y-56292448D01*
X103031471Y-56195686D01*
X103031471Y-56074733D01*
X103009700Y-55977971D01*
X102987928Y-55929590D01*
X102966157Y-55905400D01*
X102922614Y-55881210D01*
X102574271Y-56389210D02*
X102574271Y-55881210D01*
X102530728Y-56195686D02*
X102400099Y-56389210D01*
X102400099Y-56050543D02*
X102574271Y-56244067D01*
X113272510Y-126706085D02*
X113030605Y-126553685D01*
X113272510Y-126444828D02*
X112764510Y-126444828D01*
X112764510Y-126619000D01*
X112788700Y-126662542D01*
X112812890Y-126684314D01*
X112861271Y-126706085D01*
X112933843Y-126706085D01*
X112982224Y-126684314D01*
X113006414Y-126662542D01*
X113030605Y-126619000D01*
X113030605Y-126444828D01*
X113272510Y-127141514D02*
X113272510Y-126880257D01*
X113272510Y-127010885D02*
X112764510Y-127010885D01*
X112837081Y-126967342D01*
X112885462Y-126923800D01*
X112909652Y-126880257D01*
X112764510Y-127555171D02*
X112764510Y-127337457D01*
X113006414Y-127315686D01*
X112982224Y-127337457D01*
X112958033Y-127381000D01*
X112958033Y-127489857D01*
X112982224Y-127533400D01*
X113006414Y-127555171D01*
X113054795Y-127576943D01*
X113175748Y-127576943D01*
X113224129Y-127555171D01*
X113248319Y-127533400D01*
X113272510Y-127489857D01*
X113272510Y-127381000D01*
X113248319Y-127337457D01*
X113224129Y-127315686D01*
X112956824Y-128172028D02*
X112932633Y-128128486D01*
X112908443Y-128106714D01*
X112860062Y-128084943D01*
X112835871Y-128084943D01*
X112787490Y-128106714D01*
X112763300Y-128128486D01*
X112739110Y-128172028D01*
X112739110Y-128259114D01*
X112763300Y-128302657D01*
X112787490Y-128324428D01*
X112835871Y-128346200D01*
X112860062Y-128346200D01*
X112908443Y-128324428D01*
X112932633Y-128302657D01*
X112956824Y-128259114D01*
X112956824Y-128172028D01*
X112981014Y-128128486D01*
X113005205Y-128106714D01*
X113053586Y-128084943D01*
X113150348Y-128084943D01*
X113198729Y-128106714D01*
X113222919Y-128128486D01*
X113247110Y-128172028D01*
X113247110Y-128259114D01*
X113222919Y-128302657D01*
X113198729Y-128324428D01*
X113150348Y-128346200D01*
X113053586Y-128346200D01*
X113005205Y-128324428D01*
X112981014Y-128302657D01*
X112956824Y-128259114D01*
X113198729Y-128542143D02*
X113222919Y-128563915D01*
X113247110Y-128542143D01*
X113222919Y-128520372D01*
X113198729Y-128542143D01*
X113247110Y-128542143D01*
X112908443Y-128955800D02*
X113247110Y-128955800D01*
X112714919Y-128846943D02*
X113077776Y-128738086D01*
X113077776Y-129021114D01*
X113247110Y-129195286D02*
X112739110Y-129195286D01*
X113053586Y-129238829D02*
X113247110Y-129369458D01*
X112908443Y-129369458D02*
X113101967Y-129195286D01*
X110732510Y-126807685D02*
X110490605Y-126655285D01*
X110732510Y-126546428D02*
X110224510Y-126546428D01*
X110224510Y-126720600D01*
X110248700Y-126764142D01*
X110272890Y-126785914D01*
X110321271Y-126807685D01*
X110393843Y-126807685D01*
X110442224Y-126785914D01*
X110466414Y-126764142D01*
X110490605Y-126720600D01*
X110490605Y-126546428D01*
X110732510Y-127243114D02*
X110732510Y-126981857D01*
X110732510Y-127112485D02*
X110224510Y-127112485D01*
X110297081Y-127068942D01*
X110345462Y-127025400D01*
X110369652Y-126981857D01*
X110224510Y-127635000D02*
X110224510Y-127547914D01*
X110248700Y-127504371D01*
X110272890Y-127482600D01*
X110345462Y-127439057D01*
X110442224Y-127417286D01*
X110635748Y-127417286D01*
X110684129Y-127439057D01*
X110708319Y-127460829D01*
X110732510Y-127504371D01*
X110732510Y-127591457D01*
X110708319Y-127635000D01*
X110684129Y-127656771D01*
X110635748Y-127678543D01*
X110514795Y-127678543D01*
X110466414Y-127656771D01*
X110442224Y-127635000D01*
X110418033Y-127591457D01*
X110418033Y-127504371D01*
X110442224Y-127460829D01*
X110466414Y-127439057D01*
X110514795Y-127417286D01*
X110493024Y-128273628D02*
X110468833Y-128230086D01*
X110444643Y-128208314D01*
X110396262Y-128186543D01*
X110372071Y-128186543D01*
X110323690Y-128208314D01*
X110299500Y-128230086D01*
X110275310Y-128273628D01*
X110275310Y-128360714D01*
X110299500Y-128404257D01*
X110323690Y-128426028D01*
X110372071Y-128447800D01*
X110396262Y-128447800D01*
X110444643Y-128426028D01*
X110468833Y-128404257D01*
X110493024Y-128360714D01*
X110493024Y-128273628D01*
X110517214Y-128230086D01*
X110541405Y-128208314D01*
X110589786Y-128186543D01*
X110686548Y-128186543D01*
X110734929Y-128208314D01*
X110759119Y-128230086D01*
X110783310Y-128273628D01*
X110783310Y-128360714D01*
X110759119Y-128404257D01*
X110734929Y-128426028D01*
X110686548Y-128447800D01*
X110589786Y-128447800D01*
X110541405Y-128426028D01*
X110517214Y-128404257D01*
X110493024Y-128360714D01*
X110734929Y-128643743D02*
X110759119Y-128665515D01*
X110783310Y-128643743D01*
X110759119Y-128621972D01*
X110734929Y-128643743D01*
X110783310Y-128643743D01*
X110444643Y-129057400D02*
X110783310Y-129057400D01*
X110251119Y-128948543D02*
X110613976Y-128839686D01*
X110613976Y-129122714D01*
X110783310Y-129296886D02*
X110275310Y-129296886D01*
X110589786Y-129340429D02*
X110783310Y-129471058D01*
X110444643Y-129471058D02*
X110638167Y-129296886D01*
X108192510Y-126829085D02*
X107950605Y-126676685D01*
X108192510Y-126567828D02*
X107684510Y-126567828D01*
X107684510Y-126742000D01*
X107708700Y-126785542D01*
X107732890Y-126807314D01*
X107781271Y-126829085D01*
X107853843Y-126829085D01*
X107902224Y-126807314D01*
X107926414Y-126785542D01*
X107950605Y-126742000D01*
X107950605Y-126567828D01*
X108192510Y-127264514D02*
X108192510Y-127003257D01*
X108192510Y-127133885D02*
X107684510Y-127133885D01*
X107757081Y-127090342D01*
X107805462Y-127046800D01*
X107829652Y-127003257D01*
X107684510Y-127416914D02*
X107684510Y-127721714D01*
X108192510Y-127525771D01*
X107902224Y-128295028D02*
X107878033Y-128251486D01*
X107853843Y-128229714D01*
X107805462Y-128207943D01*
X107781271Y-128207943D01*
X107732890Y-128229714D01*
X107708700Y-128251486D01*
X107684510Y-128295028D01*
X107684510Y-128382114D01*
X107708700Y-128425657D01*
X107732890Y-128447428D01*
X107781271Y-128469200D01*
X107805462Y-128469200D01*
X107853843Y-128447428D01*
X107878033Y-128425657D01*
X107902224Y-128382114D01*
X107902224Y-128295028D01*
X107926414Y-128251486D01*
X107950605Y-128229714D01*
X107998986Y-128207943D01*
X108095748Y-128207943D01*
X108144129Y-128229714D01*
X108168319Y-128251486D01*
X108192510Y-128295028D01*
X108192510Y-128382114D01*
X108168319Y-128425657D01*
X108144129Y-128447428D01*
X108095748Y-128469200D01*
X107998986Y-128469200D01*
X107950605Y-128447428D01*
X107926414Y-128425657D01*
X107902224Y-128382114D01*
X108144129Y-128665143D02*
X108168319Y-128686915D01*
X108192510Y-128665143D01*
X108168319Y-128643372D01*
X108144129Y-128665143D01*
X108192510Y-128665143D01*
X107853843Y-129078800D02*
X108192510Y-129078800D01*
X107660319Y-128969943D02*
X108023176Y-128861086D01*
X108023176Y-129144114D01*
X108192510Y-129318286D02*
X107684510Y-129318286D01*
X107998986Y-129361829D02*
X108192510Y-129492458D01*
X107853843Y-129492458D02*
X108047367Y-129318286D01*
X105627110Y-126803685D02*
X105385205Y-126651285D01*
X105627110Y-126542428D02*
X105119110Y-126542428D01*
X105119110Y-126716600D01*
X105143300Y-126760142D01*
X105167490Y-126781914D01*
X105215871Y-126803685D01*
X105288443Y-126803685D01*
X105336824Y-126781914D01*
X105361014Y-126760142D01*
X105385205Y-126716600D01*
X105385205Y-126542428D01*
X105627110Y-127239114D02*
X105627110Y-126977857D01*
X105627110Y-127108485D02*
X105119110Y-127108485D01*
X105191681Y-127064942D01*
X105240062Y-127021400D01*
X105264252Y-126977857D01*
X105336824Y-127500371D02*
X105312633Y-127456829D01*
X105288443Y-127435057D01*
X105240062Y-127413286D01*
X105215871Y-127413286D01*
X105167490Y-127435057D01*
X105143300Y-127456829D01*
X105119110Y-127500371D01*
X105119110Y-127587457D01*
X105143300Y-127631000D01*
X105167490Y-127652771D01*
X105215871Y-127674543D01*
X105240062Y-127674543D01*
X105288443Y-127652771D01*
X105312633Y-127631000D01*
X105336824Y-127587457D01*
X105336824Y-127500371D01*
X105361014Y-127456829D01*
X105385205Y-127435057D01*
X105433586Y-127413286D01*
X105530348Y-127413286D01*
X105578729Y-127435057D01*
X105602919Y-127456829D01*
X105627110Y-127500371D01*
X105627110Y-127587457D01*
X105602919Y-127631000D01*
X105578729Y-127652771D01*
X105530348Y-127674543D01*
X105433586Y-127674543D01*
X105385205Y-127652771D01*
X105361014Y-127631000D01*
X105336824Y-127587457D01*
X105286024Y-128422028D02*
X105261833Y-128378486D01*
X105237643Y-128356714D01*
X105189262Y-128334943D01*
X105165071Y-128334943D01*
X105116690Y-128356714D01*
X105092500Y-128378486D01*
X105068310Y-128422028D01*
X105068310Y-128509114D01*
X105092500Y-128552657D01*
X105116690Y-128574428D01*
X105165071Y-128596200D01*
X105189262Y-128596200D01*
X105237643Y-128574428D01*
X105261833Y-128552657D01*
X105286024Y-128509114D01*
X105286024Y-128422028D01*
X105310214Y-128378486D01*
X105334405Y-128356714D01*
X105382786Y-128334943D01*
X105479548Y-128334943D01*
X105527929Y-128356714D01*
X105552119Y-128378486D01*
X105576310Y-128422028D01*
X105576310Y-128509114D01*
X105552119Y-128552657D01*
X105527929Y-128574428D01*
X105479548Y-128596200D01*
X105382786Y-128596200D01*
X105334405Y-128574428D01*
X105310214Y-128552657D01*
X105286024Y-128509114D01*
X105527929Y-128792143D02*
X105552119Y-128813915D01*
X105576310Y-128792143D01*
X105552119Y-128770372D01*
X105527929Y-128792143D01*
X105576310Y-128792143D01*
X105237643Y-129205800D02*
X105576310Y-129205800D01*
X105044119Y-129096943D02*
X105406976Y-128988086D01*
X105406976Y-129271114D01*
X105576310Y-129445286D02*
X105068310Y-129445286D01*
X105382786Y-129488829D02*
X105576310Y-129619458D01*
X105237643Y-129619458D02*
X105431167Y-129445286D01*
X105652510Y-123086585D02*
X105410605Y-122934185D01*
X105652510Y-122825328D02*
X105144510Y-122825328D01*
X105144510Y-122999500D01*
X105168700Y-123043042D01*
X105192890Y-123064814D01*
X105241271Y-123086585D01*
X105313843Y-123086585D01*
X105362224Y-123064814D01*
X105386414Y-123043042D01*
X105410605Y-122999500D01*
X105410605Y-122825328D01*
X105652510Y-123522014D02*
X105652510Y-123260757D01*
X105652510Y-123391385D02*
X105144510Y-123391385D01*
X105217081Y-123347842D01*
X105265462Y-123304300D01*
X105289652Y-123260757D01*
X105652510Y-123739729D02*
X105652510Y-123826814D01*
X105628319Y-123870357D01*
X105604129Y-123892129D01*
X105531557Y-123935671D01*
X105434795Y-123957443D01*
X105241271Y-123957443D01*
X105192890Y-123935671D01*
X105168700Y-123913900D01*
X105144510Y-123870357D01*
X105144510Y-123783271D01*
X105168700Y-123739729D01*
X105192890Y-123717957D01*
X105241271Y-123696186D01*
X105362224Y-123696186D01*
X105410605Y-123717957D01*
X105434795Y-123739729D01*
X105458986Y-123783271D01*
X105458986Y-123870357D01*
X105434795Y-123913900D01*
X105410605Y-123935671D01*
X105362224Y-123957443D01*
X105339243Y-124810157D02*
X105677910Y-124810157D01*
X105145719Y-124701300D02*
X105508576Y-124592443D01*
X105508576Y-124875471D01*
X105629529Y-125049643D02*
X105653719Y-125071415D01*
X105677910Y-125049643D01*
X105653719Y-125027872D01*
X105629529Y-125049643D01*
X105677910Y-125049643D01*
X105169910Y-125223814D02*
X105169910Y-125528614D01*
X105677910Y-125332671D01*
X105677910Y-125702786D02*
X105169910Y-125702786D01*
X105484386Y-125746329D02*
X105677910Y-125876958D01*
X105339243Y-125876958D02*
X105532767Y-125702786D01*
X108167110Y-123082585D02*
X107925205Y-122930185D01*
X108167110Y-122821328D02*
X107659110Y-122821328D01*
X107659110Y-122995500D01*
X107683300Y-123039042D01*
X107707490Y-123060814D01*
X107755871Y-123082585D01*
X107828443Y-123082585D01*
X107876824Y-123060814D01*
X107901014Y-123039042D01*
X107925205Y-122995500D01*
X107925205Y-122821328D01*
X107707490Y-123256757D02*
X107683300Y-123278528D01*
X107659110Y-123322071D01*
X107659110Y-123430928D01*
X107683300Y-123474471D01*
X107707490Y-123496242D01*
X107755871Y-123518014D01*
X107804252Y-123518014D01*
X107876824Y-123496242D01*
X108167110Y-123234985D01*
X108167110Y-123518014D01*
X107659110Y-123801043D02*
X107659110Y-123844586D01*
X107683300Y-123888129D01*
X107707490Y-123909900D01*
X107755871Y-123931671D01*
X107852633Y-123953443D01*
X107973586Y-123953443D01*
X108070348Y-123931671D01*
X108118729Y-123909900D01*
X108142919Y-123888129D01*
X108167110Y-123844586D01*
X108167110Y-123801043D01*
X108142919Y-123757500D01*
X108118729Y-123735729D01*
X108070348Y-123713957D01*
X107973586Y-123692186D01*
X107852633Y-123692186D01*
X107755871Y-123713957D01*
X107707490Y-123735729D01*
X107683300Y-123757500D01*
X107659110Y-123801043D01*
X107828443Y-124679157D02*
X108167110Y-124679157D01*
X107634919Y-124570300D02*
X107997776Y-124461443D01*
X107997776Y-124744471D01*
X108118729Y-124918643D02*
X108142919Y-124940415D01*
X108167110Y-124918643D01*
X108142919Y-124896872D01*
X108118729Y-124918643D01*
X108167110Y-124918643D01*
X107659110Y-125092814D02*
X107659110Y-125397614D01*
X108167110Y-125201671D01*
X108167110Y-125571786D02*
X107659110Y-125571786D01*
X107973586Y-125615329D02*
X108167110Y-125745958D01*
X107828443Y-125745958D02*
X108021967Y-125571786D01*
X110681710Y-123086585D02*
X110439805Y-122934185D01*
X110681710Y-122825328D02*
X110173710Y-122825328D01*
X110173710Y-122999500D01*
X110197900Y-123043042D01*
X110222090Y-123064814D01*
X110270471Y-123086585D01*
X110343043Y-123086585D01*
X110391424Y-123064814D01*
X110415614Y-123043042D01*
X110439805Y-122999500D01*
X110439805Y-122825328D01*
X110222090Y-123260757D02*
X110197900Y-123282528D01*
X110173710Y-123326071D01*
X110173710Y-123434928D01*
X110197900Y-123478471D01*
X110222090Y-123500242D01*
X110270471Y-123522014D01*
X110318852Y-123522014D01*
X110391424Y-123500242D01*
X110681710Y-123238985D01*
X110681710Y-123522014D01*
X110681710Y-123957443D02*
X110681710Y-123696186D01*
X110681710Y-123826814D02*
X110173710Y-123826814D01*
X110246281Y-123783271D01*
X110294662Y-123739729D01*
X110318852Y-123696186D01*
X110368443Y-124581557D02*
X110707110Y-124581557D01*
X110174919Y-124472700D02*
X110537776Y-124363843D01*
X110537776Y-124646871D01*
X110658729Y-124821043D02*
X110682919Y-124842815D01*
X110707110Y-124821043D01*
X110682919Y-124799272D01*
X110658729Y-124821043D01*
X110707110Y-124821043D01*
X110199110Y-124995214D02*
X110199110Y-125300014D01*
X110707110Y-125104071D01*
X110707110Y-125474186D02*
X110199110Y-125474186D01*
X110513586Y-125517729D02*
X110707110Y-125648358D01*
X110368443Y-125648358D02*
X110561967Y-125474186D01*
X113247110Y-123090585D02*
X113005205Y-122938185D01*
X113247110Y-122829328D02*
X112739110Y-122829328D01*
X112739110Y-123003500D01*
X112763300Y-123047042D01*
X112787490Y-123068814D01*
X112835871Y-123090585D01*
X112908443Y-123090585D01*
X112956824Y-123068814D01*
X112981014Y-123047042D01*
X113005205Y-123003500D01*
X113005205Y-122829328D01*
X112787490Y-123264757D02*
X112763300Y-123286528D01*
X112739110Y-123330071D01*
X112739110Y-123438928D01*
X112763300Y-123482471D01*
X112787490Y-123504242D01*
X112835871Y-123526014D01*
X112884252Y-123526014D01*
X112956824Y-123504242D01*
X113247110Y-123242985D01*
X113247110Y-123526014D01*
X112787490Y-123700186D02*
X112763300Y-123721957D01*
X112739110Y-123765500D01*
X112739110Y-123874357D01*
X112763300Y-123917900D01*
X112787490Y-123939671D01*
X112835871Y-123961443D01*
X112884252Y-123961443D01*
X112956824Y-123939671D01*
X113247110Y-123678414D01*
X113247110Y-123961443D01*
X112933843Y-124661757D02*
X113272510Y-124661757D01*
X112740319Y-124552900D02*
X113103176Y-124444043D01*
X113103176Y-124727071D01*
X113224129Y-124901243D02*
X113248319Y-124923015D01*
X113272510Y-124901243D01*
X113248319Y-124879472D01*
X113224129Y-124901243D01*
X113272510Y-124901243D01*
X112764510Y-125075414D02*
X112764510Y-125380214D01*
X113272510Y-125184271D01*
X113272510Y-125554386D02*
X112764510Y-125554386D01*
X113078986Y-125597929D02*
X113272510Y-125728558D01*
X112933843Y-125728558D02*
X113127367Y-125554386D01*
X105627110Y-115263385D02*
X105385205Y-115110985D01*
X105627110Y-115002128D02*
X105119110Y-115002128D01*
X105119110Y-115176300D01*
X105143300Y-115219842D01*
X105167490Y-115241614D01*
X105215871Y-115263385D01*
X105288443Y-115263385D01*
X105336824Y-115241614D01*
X105361014Y-115219842D01*
X105385205Y-115176300D01*
X105385205Y-115002128D01*
X105167490Y-115437557D02*
X105143300Y-115459328D01*
X105119110Y-115502871D01*
X105119110Y-115611728D01*
X105143300Y-115655271D01*
X105167490Y-115677042D01*
X105215871Y-115698814D01*
X105264252Y-115698814D01*
X105336824Y-115677042D01*
X105627110Y-115415785D01*
X105627110Y-115698814D01*
X105119110Y-115851214D02*
X105119110Y-116134243D01*
X105312633Y-115981843D01*
X105312633Y-116047157D01*
X105336824Y-116090700D01*
X105361014Y-116112471D01*
X105409395Y-116134243D01*
X105530348Y-116134243D01*
X105578729Y-116112471D01*
X105602919Y-116090700D01*
X105627110Y-116047157D01*
X105627110Y-115916529D01*
X105602919Y-115872986D01*
X105578729Y-115851214D01*
X105288443Y-116936157D02*
X105627110Y-116936157D01*
X105094919Y-116827300D02*
X105457776Y-116718443D01*
X105457776Y-117001471D01*
X105578729Y-117175643D02*
X105602919Y-117197415D01*
X105627110Y-117175643D01*
X105602919Y-117153872D01*
X105578729Y-117175643D01*
X105627110Y-117175643D01*
X105119110Y-117349814D02*
X105119110Y-117654614D01*
X105627110Y-117458671D01*
X105627110Y-117828786D02*
X105119110Y-117828786D01*
X105433586Y-117872329D02*
X105627110Y-118002958D01*
X105288443Y-118002958D02*
X105481967Y-117828786D01*
X108179810Y-115263385D02*
X107937905Y-115110985D01*
X108179810Y-115002128D02*
X107671810Y-115002128D01*
X107671810Y-115176300D01*
X107696000Y-115219842D01*
X107720190Y-115241614D01*
X107768571Y-115263385D01*
X107841143Y-115263385D01*
X107889524Y-115241614D01*
X107913714Y-115219842D01*
X107937905Y-115176300D01*
X107937905Y-115002128D01*
X107720190Y-115437557D02*
X107696000Y-115459328D01*
X107671810Y-115502871D01*
X107671810Y-115611728D01*
X107696000Y-115655271D01*
X107720190Y-115677042D01*
X107768571Y-115698814D01*
X107816952Y-115698814D01*
X107889524Y-115677042D01*
X108179810Y-115415785D01*
X108179810Y-115698814D01*
X107841143Y-116090700D02*
X108179810Y-116090700D01*
X107647619Y-115981843D02*
X108010476Y-115872986D01*
X108010476Y-116156014D01*
X107841143Y-116834557D02*
X108179810Y-116834557D01*
X107647619Y-116725700D02*
X108010476Y-116616843D01*
X108010476Y-116899871D01*
X108131429Y-117074043D02*
X108155619Y-117095815D01*
X108179810Y-117074043D01*
X108155619Y-117052272D01*
X108131429Y-117074043D01*
X108179810Y-117074043D01*
X107671810Y-117248214D02*
X107671810Y-117553014D01*
X108179810Y-117357071D01*
X108179810Y-117727186D02*
X107671810Y-117727186D01*
X107986286Y-117770729D02*
X108179810Y-117901358D01*
X107841143Y-117901358D02*
X108034667Y-117727186D01*
X110745210Y-115237985D02*
X110503305Y-115085585D01*
X110745210Y-114976728D02*
X110237210Y-114976728D01*
X110237210Y-115150900D01*
X110261400Y-115194442D01*
X110285590Y-115216214D01*
X110333971Y-115237985D01*
X110406543Y-115237985D01*
X110454924Y-115216214D01*
X110479114Y-115194442D01*
X110503305Y-115150900D01*
X110503305Y-114976728D01*
X110285590Y-115412157D02*
X110261400Y-115433928D01*
X110237210Y-115477471D01*
X110237210Y-115586328D01*
X110261400Y-115629871D01*
X110285590Y-115651642D01*
X110333971Y-115673414D01*
X110382352Y-115673414D01*
X110454924Y-115651642D01*
X110745210Y-115390385D01*
X110745210Y-115673414D01*
X110237210Y-116087071D02*
X110237210Y-115869357D01*
X110479114Y-115847586D01*
X110454924Y-115869357D01*
X110430733Y-115912900D01*
X110430733Y-116021757D01*
X110454924Y-116065300D01*
X110479114Y-116087071D01*
X110527495Y-116108843D01*
X110648448Y-116108843D01*
X110696829Y-116087071D01*
X110721019Y-116065300D01*
X110745210Y-116021757D01*
X110745210Y-115912900D01*
X110721019Y-115869357D01*
X110696829Y-115847586D01*
X110406543Y-116859957D02*
X110745210Y-116859957D01*
X110213019Y-116751100D02*
X110575876Y-116642243D01*
X110575876Y-116925271D01*
X110696829Y-117099443D02*
X110721019Y-117121215D01*
X110745210Y-117099443D01*
X110721019Y-117077672D01*
X110696829Y-117099443D01*
X110745210Y-117099443D01*
X110237210Y-117273614D02*
X110237210Y-117578414D01*
X110745210Y-117382471D01*
X110745210Y-117752586D02*
X110237210Y-117752586D01*
X110551686Y-117796129D02*
X110745210Y-117926758D01*
X110406543Y-117926758D02*
X110600067Y-117752586D01*
X113183610Y-115237985D02*
X112941705Y-115085585D01*
X113183610Y-114976728D02*
X112675610Y-114976728D01*
X112675610Y-115150900D01*
X112699800Y-115194442D01*
X112723990Y-115216214D01*
X112772371Y-115237985D01*
X112844943Y-115237985D01*
X112893324Y-115216214D01*
X112917514Y-115194442D01*
X112941705Y-115150900D01*
X112941705Y-114976728D01*
X112723990Y-115412157D02*
X112699800Y-115433928D01*
X112675610Y-115477471D01*
X112675610Y-115586328D01*
X112699800Y-115629871D01*
X112723990Y-115651642D01*
X112772371Y-115673414D01*
X112820752Y-115673414D01*
X112893324Y-115651642D01*
X113183610Y-115390385D01*
X113183610Y-115673414D01*
X112675610Y-116065300D02*
X112675610Y-115978214D01*
X112699800Y-115934671D01*
X112723990Y-115912900D01*
X112796562Y-115869357D01*
X112893324Y-115847586D01*
X113086848Y-115847586D01*
X113135229Y-115869357D01*
X113159419Y-115891129D01*
X113183610Y-115934671D01*
X113183610Y-116021757D01*
X113159419Y-116065300D01*
X113135229Y-116087071D01*
X113086848Y-116108843D01*
X112965895Y-116108843D01*
X112917514Y-116087071D01*
X112893324Y-116065300D01*
X112869133Y-116021757D01*
X112869133Y-115934671D01*
X112893324Y-115891129D01*
X112917514Y-115869357D01*
X112965895Y-115847586D01*
X112870343Y-116834557D02*
X113209010Y-116834557D01*
X112676819Y-116725700D02*
X113039676Y-116616843D01*
X113039676Y-116899871D01*
X113160629Y-117074043D02*
X113184819Y-117095815D01*
X113209010Y-117074043D01*
X113184819Y-117052272D01*
X113160629Y-117074043D01*
X113209010Y-117074043D01*
X112701010Y-117248214D02*
X112701010Y-117553014D01*
X113209010Y-117357071D01*
X113209010Y-117727186D02*
X112701010Y-117727186D01*
X113015486Y-117770729D02*
X113209010Y-117901358D01*
X112870343Y-117901358D02*
X113063867Y-117727186D01*
X105195310Y-110150365D02*
X104953405Y-109997965D01*
X105195310Y-109889108D02*
X104687310Y-109889108D01*
X104687310Y-110063280D01*
X104711500Y-110106822D01*
X104735690Y-110128594D01*
X104784071Y-110150365D01*
X104856643Y-110150365D01*
X104905024Y-110128594D01*
X104929214Y-110106822D01*
X104953405Y-110063280D01*
X104953405Y-109889108D01*
X104735690Y-110324537D02*
X104711500Y-110346308D01*
X104687310Y-110389851D01*
X104687310Y-110498708D01*
X104711500Y-110542251D01*
X104735690Y-110564022D01*
X104784071Y-110585794D01*
X104832452Y-110585794D01*
X104905024Y-110564022D01*
X105195310Y-110302765D01*
X105195310Y-110585794D01*
X104687310Y-110738194D02*
X104687310Y-111042994D01*
X105195310Y-110847051D01*
X105717824Y-109929748D02*
X105693633Y-109886206D01*
X105669443Y-109864434D01*
X105621062Y-109842663D01*
X105596871Y-109842663D01*
X105548490Y-109864434D01*
X105524300Y-109886206D01*
X105500110Y-109929748D01*
X105500110Y-110016834D01*
X105524300Y-110060377D01*
X105548490Y-110082148D01*
X105596871Y-110103920D01*
X105621062Y-110103920D01*
X105669443Y-110082148D01*
X105693633Y-110060377D01*
X105717824Y-110016834D01*
X105717824Y-109929748D01*
X105742014Y-109886206D01*
X105766205Y-109864434D01*
X105814586Y-109842663D01*
X105911348Y-109842663D01*
X105959729Y-109864434D01*
X105983919Y-109886206D01*
X106008110Y-109929748D01*
X106008110Y-110016834D01*
X105983919Y-110060377D01*
X105959729Y-110082148D01*
X105911348Y-110103920D01*
X105814586Y-110103920D01*
X105766205Y-110082148D01*
X105742014Y-110060377D01*
X105717824Y-110016834D01*
X105959729Y-110299863D02*
X105983919Y-110321635D01*
X106008110Y-110299863D01*
X105983919Y-110278092D01*
X105959729Y-110299863D01*
X106008110Y-110299863D01*
X105669443Y-110713520D02*
X106008110Y-110713520D01*
X105475919Y-110604663D02*
X105838776Y-110495806D01*
X105838776Y-110778834D01*
X106008110Y-110953006D02*
X105500110Y-110953006D01*
X105814586Y-110996549D02*
X106008110Y-111127178D01*
X105669443Y-111127178D02*
X105862967Y-110953006D01*
X108418570Y-110122425D02*
X108176665Y-109970025D01*
X108418570Y-109861168D02*
X107910570Y-109861168D01*
X107910570Y-110035340D01*
X107934760Y-110078882D01*
X107958950Y-110100654D01*
X108007331Y-110122425D01*
X108079903Y-110122425D01*
X108128284Y-110100654D01*
X108152474Y-110078882D01*
X108176665Y-110035340D01*
X108176665Y-109861168D01*
X107958950Y-110296597D02*
X107934760Y-110318368D01*
X107910570Y-110361911D01*
X107910570Y-110470768D01*
X107934760Y-110514311D01*
X107958950Y-110536082D01*
X108007331Y-110557854D01*
X108055712Y-110557854D01*
X108128284Y-110536082D01*
X108418570Y-110274825D01*
X108418570Y-110557854D01*
X108128284Y-110819111D02*
X108104093Y-110775569D01*
X108079903Y-110753797D01*
X108031522Y-110732026D01*
X108007331Y-110732026D01*
X107958950Y-110753797D01*
X107934760Y-110775569D01*
X107910570Y-110819111D01*
X107910570Y-110906197D01*
X107934760Y-110949740D01*
X107958950Y-110971511D01*
X108007331Y-110993283D01*
X108031522Y-110993283D01*
X108079903Y-110971511D01*
X108104093Y-110949740D01*
X108128284Y-110906197D01*
X108128284Y-110819111D01*
X108152474Y-110775569D01*
X108176665Y-110753797D01*
X108225046Y-110732026D01*
X108321808Y-110732026D01*
X108370189Y-110753797D01*
X108394379Y-110775569D01*
X108418570Y-110819111D01*
X108418570Y-110906197D01*
X108394379Y-110949740D01*
X108370189Y-110971511D01*
X108321808Y-110993283D01*
X108225046Y-110993283D01*
X108176665Y-110971511D01*
X108152474Y-110949740D01*
X108128284Y-110906197D01*
X109063004Y-109901808D02*
X109038813Y-109858266D01*
X109014623Y-109836494D01*
X108966242Y-109814723D01*
X108942051Y-109814723D01*
X108893670Y-109836494D01*
X108869480Y-109858266D01*
X108845290Y-109901808D01*
X108845290Y-109988894D01*
X108869480Y-110032437D01*
X108893670Y-110054208D01*
X108942051Y-110075980D01*
X108966242Y-110075980D01*
X109014623Y-110054208D01*
X109038813Y-110032437D01*
X109063004Y-109988894D01*
X109063004Y-109901808D01*
X109087194Y-109858266D01*
X109111385Y-109836494D01*
X109159766Y-109814723D01*
X109256528Y-109814723D01*
X109304909Y-109836494D01*
X109329099Y-109858266D01*
X109353290Y-109901808D01*
X109353290Y-109988894D01*
X109329099Y-110032437D01*
X109304909Y-110054208D01*
X109256528Y-110075980D01*
X109159766Y-110075980D01*
X109111385Y-110054208D01*
X109087194Y-110032437D01*
X109063004Y-109988894D01*
X109304909Y-110271923D02*
X109329099Y-110293695D01*
X109353290Y-110271923D01*
X109329099Y-110250152D01*
X109304909Y-110271923D01*
X109353290Y-110271923D01*
X109014623Y-110685580D02*
X109353290Y-110685580D01*
X108821099Y-110576723D02*
X109183956Y-110467866D01*
X109183956Y-110750894D01*
X109353290Y-110925066D02*
X108845290Y-110925066D01*
X109159766Y-110968609D02*
X109353290Y-111099238D01*
X109014623Y-111099238D02*
X109208147Y-110925066D01*
X111019530Y-110102105D02*
X110777625Y-109949705D01*
X111019530Y-109840848D02*
X110511530Y-109840848D01*
X110511530Y-110015020D01*
X110535720Y-110058562D01*
X110559910Y-110080334D01*
X110608291Y-110102105D01*
X110680863Y-110102105D01*
X110729244Y-110080334D01*
X110753434Y-110058562D01*
X110777625Y-110015020D01*
X110777625Y-109840848D01*
X110559910Y-110276277D02*
X110535720Y-110298048D01*
X110511530Y-110341591D01*
X110511530Y-110450448D01*
X110535720Y-110493991D01*
X110559910Y-110515762D01*
X110608291Y-110537534D01*
X110656672Y-110537534D01*
X110729244Y-110515762D01*
X111019530Y-110254505D01*
X111019530Y-110537534D01*
X111019530Y-110755249D02*
X111019530Y-110842334D01*
X110995339Y-110885877D01*
X110971149Y-110907649D01*
X110898577Y-110951191D01*
X110801815Y-110972963D01*
X110608291Y-110972963D01*
X110559910Y-110951191D01*
X110535720Y-110929420D01*
X110511530Y-110885877D01*
X110511530Y-110798791D01*
X110535720Y-110755249D01*
X110559910Y-110733477D01*
X110608291Y-110711706D01*
X110729244Y-110711706D01*
X110777625Y-110733477D01*
X110801815Y-110755249D01*
X110826006Y-110798791D01*
X110826006Y-110885877D01*
X110801815Y-110929420D01*
X110777625Y-110951191D01*
X110729244Y-110972963D01*
X111603004Y-109820528D02*
X111578813Y-109776986D01*
X111554623Y-109755214D01*
X111506242Y-109733443D01*
X111482051Y-109733443D01*
X111433670Y-109755214D01*
X111409480Y-109776986D01*
X111385290Y-109820528D01*
X111385290Y-109907614D01*
X111409480Y-109951157D01*
X111433670Y-109972928D01*
X111482051Y-109994700D01*
X111506242Y-109994700D01*
X111554623Y-109972928D01*
X111578813Y-109951157D01*
X111603004Y-109907614D01*
X111603004Y-109820528D01*
X111627194Y-109776986D01*
X111651385Y-109755214D01*
X111699766Y-109733443D01*
X111796528Y-109733443D01*
X111844909Y-109755214D01*
X111869099Y-109776986D01*
X111893290Y-109820528D01*
X111893290Y-109907614D01*
X111869099Y-109951157D01*
X111844909Y-109972928D01*
X111796528Y-109994700D01*
X111699766Y-109994700D01*
X111651385Y-109972928D01*
X111627194Y-109951157D01*
X111603004Y-109907614D01*
X111844909Y-110190643D02*
X111869099Y-110212415D01*
X111893290Y-110190643D01*
X111869099Y-110168872D01*
X111844909Y-110190643D01*
X111893290Y-110190643D01*
X111554623Y-110604300D02*
X111893290Y-110604300D01*
X111361099Y-110495443D02*
X111723956Y-110386586D01*
X111723956Y-110669614D01*
X111893290Y-110843786D02*
X111385290Y-110843786D01*
X111699766Y-110887329D02*
X111893290Y-111017958D01*
X111554623Y-111017958D02*
X111748147Y-110843786D01*
X113579850Y-110102105D02*
X113337945Y-109949705D01*
X113579850Y-109840848D02*
X113071850Y-109840848D01*
X113071850Y-110015020D01*
X113096040Y-110058562D01*
X113120230Y-110080334D01*
X113168611Y-110102105D01*
X113241183Y-110102105D01*
X113289564Y-110080334D01*
X113313754Y-110058562D01*
X113337945Y-110015020D01*
X113337945Y-109840848D01*
X113071850Y-110254505D02*
X113071850Y-110537534D01*
X113265373Y-110385134D01*
X113265373Y-110450448D01*
X113289564Y-110493991D01*
X113313754Y-110515762D01*
X113362135Y-110537534D01*
X113483088Y-110537534D01*
X113531469Y-110515762D01*
X113555659Y-110493991D01*
X113579850Y-110450448D01*
X113579850Y-110319820D01*
X113555659Y-110276277D01*
X113531469Y-110254505D01*
X113071850Y-110820563D02*
X113071850Y-110864106D01*
X113096040Y-110907649D01*
X113120230Y-110929420D01*
X113168611Y-110951191D01*
X113265373Y-110972963D01*
X113386326Y-110972963D01*
X113483088Y-110951191D01*
X113531469Y-110929420D01*
X113555659Y-110907649D01*
X113579850Y-110864106D01*
X113579850Y-110820563D01*
X113555659Y-110777020D01*
X113531469Y-110755249D01*
X113483088Y-110733477D01*
X113386326Y-110711706D01*
X113265373Y-110711706D01*
X113168611Y-110733477D01*
X113120230Y-110755249D01*
X113096040Y-110777020D01*
X113071850Y-110820563D01*
X114102364Y-109820528D02*
X114078173Y-109776986D01*
X114053983Y-109755214D01*
X114005602Y-109733443D01*
X113981411Y-109733443D01*
X113933030Y-109755214D01*
X113908840Y-109776986D01*
X113884650Y-109820528D01*
X113884650Y-109907614D01*
X113908840Y-109951157D01*
X113933030Y-109972928D01*
X113981411Y-109994700D01*
X114005602Y-109994700D01*
X114053983Y-109972928D01*
X114078173Y-109951157D01*
X114102364Y-109907614D01*
X114102364Y-109820528D01*
X114126554Y-109776986D01*
X114150745Y-109755214D01*
X114199126Y-109733443D01*
X114295888Y-109733443D01*
X114344269Y-109755214D01*
X114368459Y-109776986D01*
X114392650Y-109820528D01*
X114392650Y-109907614D01*
X114368459Y-109951157D01*
X114344269Y-109972928D01*
X114295888Y-109994700D01*
X114199126Y-109994700D01*
X114150745Y-109972928D01*
X114126554Y-109951157D01*
X114102364Y-109907614D01*
X114344269Y-110190643D02*
X114368459Y-110212415D01*
X114392650Y-110190643D01*
X114368459Y-110168872D01*
X114344269Y-110190643D01*
X114392650Y-110190643D01*
X114053983Y-110604300D02*
X114392650Y-110604300D01*
X113860459Y-110495443D02*
X114223316Y-110386586D01*
X114223316Y-110669614D01*
X114392650Y-110843786D02*
X113884650Y-110843786D01*
X114199126Y-110887329D02*
X114392650Y-111017958D01*
X114053983Y-111017958D02*
X114247507Y-110843786D01*
X128746795Y-74306370D02*
X128899195Y-74064465D01*
X129008052Y-74306370D02*
X129008052Y-73798370D01*
X128833880Y-73798370D01*
X128790338Y-73822560D01*
X128768566Y-73846750D01*
X128746795Y-73895131D01*
X128746795Y-73967703D01*
X128768566Y-74016084D01*
X128790338Y-74040274D01*
X128833880Y-74064465D01*
X129008052Y-74064465D01*
X128594395Y-73798370D02*
X128311366Y-73798370D01*
X128463766Y-73991893D01*
X128398452Y-73991893D01*
X128354909Y-74016084D01*
X128333138Y-74040274D01*
X128311366Y-74088655D01*
X128311366Y-74209608D01*
X128333138Y-74257989D01*
X128354909Y-74282179D01*
X128398452Y-74306370D01*
X128529080Y-74306370D01*
X128572623Y-74282179D01*
X128594395Y-74257989D01*
X128050109Y-74016084D02*
X128093651Y-73991893D01*
X128115423Y-73967703D01*
X128137194Y-73919322D01*
X128137194Y-73895131D01*
X128115423Y-73846750D01*
X128093651Y-73822560D01*
X128050109Y-73798370D01*
X127963023Y-73798370D01*
X127919480Y-73822560D01*
X127897709Y-73846750D01*
X127875937Y-73895131D01*
X127875937Y-73919322D01*
X127897709Y-73967703D01*
X127919480Y-73991893D01*
X127963023Y-74016084D01*
X128050109Y-74016084D01*
X128093651Y-74040274D01*
X128115423Y-74064465D01*
X128137194Y-74112846D01*
X128137194Y-74209608D01*
X128115423Y-74257989D01*
X128093651Y-74282179D01*
X128050109Y-74306370D01*
X127963023Y-74306370D01*
X127919480Y-74282179D01*
X127897709Y-74257989D01*
X127875937Y-74209608D01*
X127875937Y-74112846D01*
X127897709Y-74064465D01*
X127919480Y-74040274D01*
X127963023Y-74016084D01*
X128983377Y-74623990D02*
X128961606Y-74599800D01*
X128918063Y-74575610D01*
X128809206Y-74575610D01*
X128765663Y-74599800D01*
X128743892Y-74623990D01*
X128722120Y-74672371D01*
X128722120Y-74720752D01*
X128743892Y-74793324D01*
X129005149Y-75083610D01*
X128722120Y-75083610D01*
X128547948Y-74623990D02*
X128526177Y-74599800D01*
X128482634Y-74575610D01*
X128373777Y-74575610D01*
X128330234Y-74599800D01*
X128308463Y-74623990D01*
X128286691Y-74672371D01*
X128286691Y-74720752D01*
X128308463Y-74793324D01*
X128569720Y-75083610D01*
X128286691Y-75083610D01*
X128003662Y-74575610D02*
X127960119Y-74575610D01*
X127916576Y-74599800D01*
X127894805Y-74623990D01*
X127873034Y-74672371D01*
X127851262Y-74769133D01*
X127851262Y-74890086D01*
X127873034Y-74986848D01*
X127894805Y-75035229D01*
X127916576Y-75059419D01*
X127960119Y-75083610D01*
X128003662Y-75083610D01*
X128047205Y-75059419D01*
X128068976Y-75035229D01*
X128090748Y-74986848D01*
X128112519Y-74890086D01*
X128112519Y-74769133D01*
X128090748Y-74672371D01*
X128068976Y-74623990D01*
X128047205Y-74599800D01*
X128003662Y-74575610D01*
X127239970Y-55118725D02*
X126998065Y-54966325D01*
X127239970Y-54857468D02*
X126731970Y-54857468D01*
X126731970Y-55031640D01*
X126756160Y-55075182D01*
X126780350Y-55096954D01*
X126828731Y-55118725D01*
X126901303Y-55118725D01*
X126949684Y-55096954D01*
X126973874Y-55075182D01*
X126998065Y-55031640D01*
X126998065Y-54857468D01*
X126901303Y-55510611D02*
X127239970Y-55510611D01*
X126707779Y-55401754D02*
X127070636Y-55292897D01*
X127070636Y-55575925D01*
X126731970Y-55837183D02*
X126731970Y-55880726D01*
X126756160Y-55924269D01*
X126780350Y-55946040D01*
X126828731Y-55967811D01*
X126925493Y-55989583D01*
X127046446Y-55989583D01*
X127143208Y-55967811D01*
X127191589Y-55946040D01*
X127215779Y-55924269D01*
X127239970Y-55880726D01*
X127239970Y-55837183D01*
X127215779Y-55793640D01*
X127191589Y-55771869D01*
X127143208Y-55750097D01*
X127046446Y-55728326D01*
X126925493Y-55728326D01*
X126828731Y-55750097D01*
X126780350Y-55771869D01*
X126756160Y-55793640D01*
X126731970Y-55837183D01*
X128001970Y-55160817D02*
X128001970Y-54899560D01*
X128001970Y-55030188D02*
X127493970Y-55030188D01*
X127566541Y-54986645D01*
X127614922Y-54943103D01*
X127639112Y-54899560D01*
X127493970Y-55443846D02*
X127493970Y-55487389D01*
X127518160Y-55530932D01*
X127542350Y-55552703D01*
X127590731Y-55574474D01*
X127687493Y-55596246D01*
X127808446Y-55596246D01*
X127905208Y-55574474D01*
X127953589Y-55552703D01*
X127977779Y-55530932D01*
X128001970Y-55487389D01*
X128001970Y-55443846D01*
X127977779Y-55400303D01*
X127953589Y-55378532D01*
X127905208Y-55356760D01*
X127808446Y-55334989D01*
X127687493Y-55334989D01*
X127590731Y-55356760D01*
X127542350Y-55378532D01*
X127518160Y-55400303D01*
X127493970Y-55443846D01*
X128001970Y-55792189D02*
X127493970Y-55792189D01*
X127808446Y-55835732D02*
X128001970Y-55966361D01*
X127663303Y-55966361D02*
X127856827Y-55792189D01*
X122266650Y-55052685D02*
X122024745Y-54900285D01*
X122266650Y-54791428D02*
X121758650Y-54791428D01*
X121758650Y-54965600D01*
X121782840Y-55009142D01*
X121807030Y-55030914D01*
X121855411Y-55052685D01*
X121927983Y-55052685D01*
X121976364Y-55030914D01*
X122000554Y-55009142D01*
X122024745Y-54965600D01*
X122024745Y-54791428D01*
X121927983Y-55444571D02*
X122266650Y-55444571D01*
X121734459Y-55335714D02*
X122097316Y-55226857D01*
X122097316Y-55509885D01*
X122266650Y-55923543D02*
X122266650Y-55662286D01*
X122266650Y-55792914D02*
X121758650Y-55792914D01*
X121831221Y-55749371D01*
X121879602Y-55705829D01*
X121903792Y-55662286D01*
X124649170Y-55079537D02*
X124649170Y-54818280D01*
X124649170Y-54948908D02*
X124141170Y-54948908D01*
X124213741Y-54905365D01*
X124262122Y-54861823D01*
X124286312Y-54818280D01*
X124141170Y-55362566D02*
X124141170Y-55406109D01*
X124165360Y-55449652D01*
X124189550Y-55471423D01*
X124237931Y-55493194D01*
X124334693Y-55514966D01*
X124455646Y-55514966D01*
X124552408Y-55493194D01*
X124600789Y-55471423D01*
X124624979Y-55449652D01*
X124649170Y-55406109D01*
X124649170Y-55362566D01*
X124624979Y-55319023D01*
X124600789Y-55297252D01*
X124552408Y-55275480D01*
X124455646Y-55253709D01*
X124334693Y-55253709D01*
X124237931Y-55275480D01*
X124189550Y-55297252D01*
X124165360Y-55319023D01*
X124141170Y-55362566D01*
X124649170Y-55710909D02*
X124141170Y-55710909D01*
X124455646Y-55754452D02*
X124649170Y-55885081D01*
X124310503Y-55885081D02*
X124504027Y-55710909D01*
X159716410Y-55042525D02*
X159474505Y-54890125D01*
X159716410Y-54781268D02*
X159208410Y-54781268D01*
X159208410Y-54955440D01*
X159232600Y-54998982D01*
X159256790Y-55020754D01*
X159305171Y-55042525D01*
X159377743Y-55042525D01*
X159426124Y-55020754D01*
X159450314Y-54998982D01*
X159474505Y-54955440D01*
X159474505Y-54781268D01*
X159377743Y-55434411D02*
X159716410Y-55434411D01*
X159184219Y-55325554D02*
X159547076Y-55216697D01*
X159547076Y-55499725D01*
X159256790Y-55652126D02*
X159232600Y-55673897D01*
X159208410Y-55717440D01*
X159208410Y-55826297D01*
X159232600Y-55869840D01*
X159256790Y-55891611D01*
X159305171Y-55913383D01*
X159353552Y-55913383D01*
X159426124Y-55891611D01*
X159716410Y-55630354D01*
X159716410Y-55913383D01*
X158954410Y-55033817D02*
X158954410Y-54772560D01*
X158954410Y-54903188D02*
X158446410Y-54903188D01*
X158518981Y-54859645D01*
X158567362Y-54816103D01*
X158591552Y-54772560D01*
X158446410Y-55316846D02*
X158446410Y-55360389D01*
X158470600Y-55403932D01*
X158494790Y-55425703D01*
X158543171Y-55447474D01*
X158639933Y-55469246D01*
X158760886Y-55469246D01*
X158857648Y-55447474D01*
X158906029Y-55425703D01*
X158930219Y-55403932D01*
X158954410Y-55360389D01*
X158954410Y-55316846D01*
X158930219Y-55273303D01*
X158906029Y-55251532D01*
X158857648Y-55229760D01*
X158760886Y-55207989D01*
X158639933Y-55207989D01*
X158543171Y-55229760D01*
X158494790Y-55251532D01*
X158470600Y-55273303D01*
X158446410Y-55316846D01*
X158954410Y-55665189D02*
X158446410Y-55665189D01*
X158760886Y-55708732D02*
X158954410Y-55839361D01*
X158615743Y-55839361D02*
X158809267Y-55665189D01*
X119010370Y-55073005D02*
X118768465Y-54920605D01*
X119010370Y-54811748D02*
X118502370Y-54811748D01*
X118502370Y-54985920D01*
X118526560Y-55029462D01*
X118550750Y-55051234D01*
X118599131Y-55073005D01*
X118671703Y-55073005D01*
X118720084Y-55051234D01*
X118744274Y-55029462D01*
X118768465Y-54985920D01*
X118768465Y-54811748D01*
X118671703Y-55464891D02*
X119010370Y-55464891D01*
X118478179Y-55356034D02*
X118841036Y-55247177D01*
X118841036Y-55530205D01*
X118502370Y-55660834D02*
X118502370Y-55943863D01*
X118695893Y-55791463D01*
X118695893Y-55856777D01*
X118720084Y-55900320D01*
X118744274Y-55922091D01*
X118792655Y-55943863D01*
X118913608Y-55943863D01*
X118961989Y-55922091D01*
X118986179Y-55900320D01*
X119010370Y-55856777D01*
X119010370Y-55726149D01*
X118986179Y-55682606D01*
X118961989Y-55660834D01*
X119757130Y-55170977D02*
X119757130Y-54909720D01*
X119757130Y-55040348D02*
X119249130Y-55040348D01*
X119321701Y-54996805D01*
X119370082Y-54953263D01*
X119394272Y-54909720D01*
X119249130Y-55454006D02*
X119249130Y-55497549D01*
X119273320Y-55541092D01*
X119297510Y-55562863D01*
X119345891Y-55584634D01*
X119442653Y-55606406D01*
X119563606Y-55606406D01*
X119660368Y-55584634D01*
X119708749Y-55562863D01*
X119732939Y-55541092D01*
X119757130Y-55497549D01*
X119757130Y-55454006D01*
X119732939Y-55410463D01*
X119708749Y-55388692D01*
X119660368Y-55366920D01*
X119563606Y-55345149D01*
X119442653Y-55345149D01*
X119345891Y-55366920D01*
X119297510Y-55388692D01*
X119273320Y-55410463D01*
X119249130Y-55454006D01*
X119757130Y-55802349D02*
X119249130Y-55802349D01*
X119563606Y-55845892D02*
X119757130Y-55976521D01*
X119418463Y-55976521D02*
X119611987Y-55802349D01*
X154019251Y-55050125D02*
X153777346Y-54897725D01*
X154019251Y-54788868D02*
X153511251Y-54788868D01*
X153511251Y-54963040D01*
X153535441Y-55006582D01*
X153559631Y-55028354D01*
X153608012Y-55050125D01*
X153680584Y-55050125D01*
X153728965Y-55028354D01*
X153753155Y-55006582D01*
X153777346Y-54963040D01*
X153777346Y-54788868D01*
X153680584Y-55442011D02*
X154019251Y-55442011D01*
X153487060Y-55333154D02*
X153849917Y-55224297D01*
X153849917Y-55507325D01*
X153680584Y-55877440D02*
X154019251Y-55877440D01*
X153487060Y-55768583D02*
X153849917Y-55659726D01*
X153849917Y-55942754D01*
X156394090Y-55033817D02*
X156394090Y-54772560D01*
X156394090Y-54903188D02*
X155886090Y-54903188D01*
X155958661Y-54859645D01*
X156007042Y-54816103D01*
X156031232Y-54772560D01*
X155886090Y-55316846D02*
X155886090Y-55360389D01*
X155910280Y-55403932D01*
X155934470Y-55425703D01*
X155982851Y-55447474D01*
X156079613Y-55469246D01*
X156200566Y-55469246D01*
X156297328Y-55447474D01*
X156345709Y-55425703D01*
X156369899Y-55403932D01*
X156394090Y-55360389D01*
X156394090Y-55316846D01*
X156369899Y-55273303D01*
X156345709Y-55251532D01*
X156297328Y-55229760D01*
X156200566Y-55207989D01*
X156079613Y-55207989D01*
X155982851Y-55229760D01*
X155934470Y-55251532D01*
X155910280Y-55273303D01*
X155886090Y-55316846D01*
X156394090Y-55665189D02*
X155886090Y-55665189D01*
X156200566Y-55708732D02*
X156394090Y-55839361D01*
X156055423Y-55839361D02*
X156248947Y-55665189D01*
X150821330Y-55052685D02*
X150579425Y-54900285D01*
X150821330Y-54791428D02*
X150313330Y-54791428D01*
X150313330Y-54965600D01*
X150337520Y-55009142D01*
X150361710Y-55030914D01*
X150410091Y-55052685D01*
X150482663Y-55052685D01*
X150531044Y-55030914D01*
X150555234Y-55009142D01*
X150579425Y-54965600D01*
X150579425Y-54791428D01*
X150482663Y-55444571D02*
X150821330Y-55444571D01*
X150289139Y-55335714D02*
X150651996Y-55226857D01*
X150651996Y-55509885D01*
X150313330Y-55901771D02*
X150313330Y-55684057D01*
X150555234Y-55662286D01*
X150531044Y-55684057D01*
X150506853Y-55727600D01*
X150506853Y-55836457D01*
X150531044Y-55880000D01*
X150555234Y-55901771D01*
X150603615Y-55923543D01*
X150724568Y-55923543D01*
X150772949Y-55901771D01*
X150797139Y-55880000D01*
X150821330Y-55836457D01*
X150821330Y-55727600D01*
X150797139Y-55684057D01*
X150772949Y-55662286D01*
X151517290Y-55074457D02*
X151517290Y-54813200D01*
X151517290Y-54943828D02*
X151009290Y-54943828D01*
X151081861Y-54900285D01*
X151130242Y-54856743D01*
X151154432Y-54813200D01*
X151009290Y-55357486D02*
X151009290Y-55401029D01*
X151033480Y-55444572D01*
X151057670Y-55466343D01*
X151106051Y-55488114D01*
X151202813Y-55509886D01*
X151323766Y-55509886D01*
X151420528Y-55488114D01*
X151468909Y-55466343D01*
X151493099Y-55444572D01*
X151517290Y-55401029D01*
X151517290Y-55357486D01*
X151493099Y-55313943D01*
X151468909Y-55292172D01*
X151420528Y-55270400D01*
X151323766Y-55248629D01*
X151202813Y-55248629D01*
X151106051Y-55270400D01*
X151057670Y-55292172D01*
X151033480Y-55313943D01*
X151009290Y-55357486D01*
X151517290Y-55705829D02*
X151009290Y-55705829D01*
X151323766Y-55749372D02*
X151517290Y-55880001D01*
X151178623Y-55880001D02*
X151372147Y-55705829D01*
D13*
X113563882Y-84455095D02*
X114373406Y-84455095D01*
X114468644Y-84502714D01*
X114516263Y-84550333D01*
X114563882Y-84645571D01*
X114563882Y-84836048D01*
X114516263Y-84931286D01*
X114468644Y-84978905D01*
X114373406Y-85026524D01*
X113563882Y-85026524D01*
X114563882Y-86026524D02*
X114563882Y-85455095D01*
X114563882Y-85740809D02*
X113563882Y-85740809D01*
X113706739Y-85645571D01*
X113801977Y-85550333D01*
X113849596Y-85455095D01*
X146938905Y-113752381D02*
X146938905Y-114561905D01*
X146891286Y-114657143D01*
X146843667Y-114704762D01*
X146748429Y-114752381D01*
X146557952Y-114752381D01*
X146462714Y-114704762D01*
X146415095Y-114657143D01*
X146367476Y-114561905D01*
X146367476Y-113752381D01*
X145415095Y-113752381D02*
X145891286Y-113752381D01*
X145938905Y-114228571D01*
X145891286Y-114180952D01*
X145796048Y-114133333D01*
X145557952Y-114133333D01*
X145462714Y-114180952D01*
X145415095Y-114228571D01*
X145367476Y-114323810D01*
X145367476Y-114561905D01*
X145415095Y-114657143D01*
X145462714Y-114704762D01*
X145557952Y-114752381D01*
X145796048Y-114752381D01*
X145891286Y-114704762D01*
X145938905Y-114657143D01*
D17*
X132318081Y-116540967D02*
X133032367Y-116540967D01*
X133175224Y-116493347D01*
X133270462Y-116398109D01*
X133318081Y-116255252D01*
X133318081Y-116160014D01*
X132318081Y-117493348D02*
X132318081Y-117017157D01*
X132794271Y-116969538D01*
X132746652Y-117017157D01*
X132699033Y-117112395D01*
X132699033Y-117350491D01*
X132746652Y-117445729D01*
X132794271Y-117493348D01*
X132889510Y-117540967D01*
X133127605Y-117540967D01*
X133222843Y-117493348D01*
X133270462Y-117445729D01*
X133318081Y-117350491D01*
X133318081Y-117112395D01*
X133270462Y-117017157D01*
X133222843Y-116969538D01*
X116568081Y-110096443D02*
X115568081Y-110096443D01*
X115568081Y-110334538D01*
X115615700Y-110477396D01*
X115710938Y-110572634D01*
X115806176Y-110620253D01*
X115996652Y-110667872D01*
X116139510Y-110667872D01*
X116329986Y-110620253D01*
X116425224Y-110572634D01*
X116520462Y-110477396D01*
X116568081Y-110334538D01*
X116568081Y-110096443D01*
X116568081Y-111096443D02*
X115568081Y-111096443D01*
X116282367Y-111429777D01*
X115568081Y-111763110D01*
X116568081Y-111763110D01*
X115568081Y-112144062D02*
X115568081Y-112763110D01*
X115949033Y-112429776D01*
X115949033Y-112572634D01*
X115996652Y-112667872D01*
X116044271Y-112715491D01*
X116139510Y-112763110D01*
X116377605Y-112763110D01*
X116472843Y-112715491D01*
X116520462Y-112667872D01*
X116568081Y-112572634D01*
X116568081Y-112286919D01*
X116520462Y-112191681D01*
X116472843Y-112144062D01*
X116282367Y-113144062D02*
X116282367Y-113620253D01*
X116568081Y-113048824D02*
X115568081Y-113382157D01*
X116568081Y-113715491D01*
X115568081Y-113905967D02*
X115568081Y-114477396D01*
X116568081Y-114191681D02*
X115568081Y-114191681D01*
X116187129Y-114810729D02*
X116187129Y-115572634D01*
X116520462Y-116001205D02*
X116568081Y-116144062D01*
X116568081Y-116382158D01*
X116520462Y-116477396D01*
X116472843Y-116525015D01*
X116377605Y-116572634D01*
X116282367Y-116572634D01*
X116187129Y-116525015D01*
X116139510Y-116477396D01*
X116091890Y-116382158D01*
X116044271Y-116191681D01*
X115996652Y-116096443D01*
X115949033Y-116048824D01*
X115853795Y-116001205D01*
X115758557Y-116001205D01*
X115663319Y-116048824D01*
X115615700Y-116096443D01*
X115568081Y-116191681D01*
X115568081Y-116429777D01*
X115615700Y-116572634D01*
X116044271Y-117334539D02*
X116044271Y-117001205D01*
X116568081Y-117001205D02*
X115568081Y-117001205D01*
X115568081Y-117477396D01*
X116187129Y-117858348D02*
X116187129Y-118620253D01*
X116568081Y-119096443D02*
X115568081Y-119096443D01*
X115568081Y-119477396D01*
X115615700Y-119572634D01*
X115663319Y-119620253D01*
X115758557Y-119667872D01*
X115901414Y-119667872D01*
X115996652Y-119620253D01*
X116044271Y-119572634D01*
X116091890Y-119477396D01*
X116091890Y-119096443D01*
X116044271Y-120096443D02*
X116044271Y-120429777D01*
X116568081Y-120572634D02*
X116568081Y-120096443D01*
X115568081Y-120096443D01*
X115568081Y-120572634D01*
X115568081Y-121286920D02*
X116282367Y-121286920D01*
X116425224Y-121239300D01*
X116520462Y-121144062D01*
X116568081Y-121001205D01*
X116568081Y-120905967D01*
X116568081Y-121763110D02*
X115568081Y-121763110D01*
X116282367Y-122096444D01*
X115568081Y-122429777D01*
X116568081Y-122429777D01*
X115568081Y-123382158D02*
X115568081Y-122905967D01*
X116044271Y-122858348D01*
X115996652Y-122905967D01*
X115949033Y-123001205D01*
X115949033Y-123239301D01*
X115996652Y-123334539D01*
X116044271Y-123382158D01*
X116139510Y-123429777D01*
X116377605Y-123429777D01*
X116472843Y-123382158D01*
X116520462Y-123334539D01*
X116568081Y-123239301D01*
X116568081Y-123001205D01*
X116520462Y-122905967D01*
X116472843Y-122858348D01*
M02*
