G04 #@! TF.FileFunction,Soldermask,Bot*
%FSLAX46Y46*%
G04 Gerber Fmt 4.6, Leading zero omitted, Abs format (unit mm)*
G04 Created by KiCad (PCBNEW 4.0.1-stable) date 2017/04/02 21:29:11*
%MOMM*%
G01*
G04 APERTURE LIST*
%ADD10C,0.100000*%
%ADD11C,2.800000*%
%ADD12C,1.300000*%
%ADD13C,2.000000*%
%ADD14R,2.000000X2.000000*%
%ADD15C,4.464000*%
%ADD16R,1.789000X1.797000*%
%ADD17C,1.924000*%
%ADD18C,2.760000*%
%ADD19R,1.924000X1.924000*%
%ADD20R,1.535000X1.543000*%
%ADD21R,1.543000X1.535000*%
%ADD22C,1.797000*%
%ADD23C,2.178000*%
%ADD24R,0.680000X1.900000*%
%ADD25R,1.900000X0.680000*%
%ADD26R,0.908000X1.543000*%
%ADD27C,1.900000*%
%ADD28R,1.100000X1.600000*%
%ADD29R,1.400000X1.600000*%
%ADD30R,1.400000X1.200000*%
%ADD31R,1.400000X3.200000*%
%ADD32R,1.700000X2.300000*%
G04 APERTURE END LIST*
D10*
D11*
X161050000Y-112810000D03*
X161050000Y-98010000D03*
D12*
X156210000Y-113535000D03*
X156210000Y-97285000D03*
D13*
X156210000Y-107910000D03*
X156210000Y-105910000D03*
X156210000Y-103910000D03*
D14*
X156210000Y-101910000D03*
D13*
X158750000Y-108910000D03*
X158750000Y-106910000D03*
X158750000Y-104910000D03*
X158750000Y-102910000D03*
D15*
X163830000Y-50800000D03*
X163830000Y-127000000D03*
X75565000Y-50800000D03*
D10*
G36*
X133117364Y-91938666D02*
X134388034Y-93209336D01*
X133123020Y-94474350D01*
X131852350Y-93203680D01*
X133117364Y-91938666D01*
X133117364Y-91938666D01*
G37*
G36*
X131416772Y-93639258D02*
X132687442Y-94909928D01*
X131422428Y-96174942D01*
X130151758Y-94904272D01*
X131416772Y-93639258D01*
X131416772Y-93639258D01*
G37*
D16*
X138453940Y-116225320D03*
X136048940Y-116225320D03*
X141626780Y-106634280D03*
X144031780Y-106634280D03*
X144857660Y-104500680D03*
X147262660Y-104500680D03*
X147951380Y-106695240D03*
X150356380Y-106695240D03*
X140483780Y-104500680D03*
X142888780Y-104500680D03*
D11*
X161050000Y-94395000D03*
X161050000Y-79595000D03*
D12*
X156210000Y-95120000D03*
X156210000Y-78870000D03*
D13*
X156210000Y-89495000D03*
X156210000Y-87495000D03*
X156210000Y-85495000D03*
D14*
X156210000Y-83495000D03*
D13*
X158750000Y-90495000D03*
X158750000Y-88495000D03*
X158750000Y-86495000D03*
X158750000Y-84495000D03*
D17*
X154877750Y-119651750D03*
X152837750Y-119651750D03*
X156917750Y-119651750D03*
X151817750Y-122191750D03*
X153857750Y-122191750D03*
X155897750Y-122191750D03*
D18*
X160367750Y-124491750D03*
X148367750Y-124491750D03*
D17*
X140018750Y-119651750D03*
X137978750Y-119651750D03*
X142058750Y-119651750D03*
X136958750Y-122191750D03*
X138998750Y-122191750D03*
X141038750Y-122191750D03*
D18*
X145508750Y-124491750D03*
X133508750Y-124491750D03*
D19*
X93263720Y-85354160D03*
D17*
X95803720Y-85354160D03*
X93263720Y-87894160D03*
X95803720Y-87894160D03*
X93263720Y-90434160D03*
X95803720Y-90434160D03*
X93263720Y-92974160D03*
X95803720Y-92974160D03*
X93263720Y-95514160D03*
X95803720Y-95514160D03*
D19*
X104013000Y-121793000D03*
D17*
X104013000Y-119253000D03*
X106553000Y-121793000D03*
X106553000Y-119253000D03*
X109093000Y-121793000D03*
X109093000Y-119253000D03*
X111633000Y-121793000D03*
X111633000Y-119253000D03*
X114173000Y-121793000D03*
X114173000Y-119253000D03*
D19*
X81909920Y-85542120D03*
D17*
X84449920Y-85542120D03*
X81909920Y-88082120D03*
X84449920Y-88082120D03*
X81909920Y-90622120D03*
X84449920Y-90622120D03*
X81909920Y-93162120D03*
X84449920Y-93162120D03*
X81909920Y-95702120D03*
X84449920Y-95702120D03*
X162623500Y-75057000D03*
X162623500Y-72517000D03*
X162623500Y-69977000D03*
X162623500Y-67437000D03*
X162623500Y-64897000D03*
X162623500Y-62357000D03*
X115570000Y-52705000D03*
X118110000Y-52705000D03*
X120650000Y-52705000D03*
X123190000Y-52705000D03*
X125730000Y-52705000D03*
X147320000Y-52705000D03*
X149860000Y-52705000D03*
X152400000Y-52705000D03*
X154940000Y-52705000D03*
X157480000Y-52705000D03*
X131445000Y-52705000D03*
X133985000Y-52705000D03*
X136525000Y-52705000D03*
X139065000Y-52705000D03*
X141605000Y-52705000D03*
D20*
X137002900Y-85686900D03*
X139026900Y-85686900D03*
X106676000Y-53416200D03*
X104652000Y-53416200D03*
X106396600Y-56464200D03*
X104372600Y-56464200D03*
D21*
X114173000Y-127004000D03*
X114173000Y-129028000D03*
X111633000Y-127004000D03*
X111633000Y-129028000D03*
X109093000Y-127000000D03*
X109093000Y-129024000D03*
X106553000Y-127000000D03*
X106553000Y-129024000D03*
X106553000Y-123448000D03*
X106553000Y-125472000D03*
X109093000Y-123444000D03*
X109093000Y-125468000D03*
X111633000Y-123448000D03*
X111633000Y-125472000D03*
X114173000Y-123452000D03*
X114173000Y-125476000D03*
X106553000Y-115574000D03*
X106553000Y-117598000D03*
X109093000Y-115574000D03*
X109093000Y-117598000D03*
X111633000Y-115574000D03*
X111633000Y-117598000D03*
X114173000Y-115574000D03*
X114173000Y-117598000D03*
X106553000Y-114042000D03*
X106553000Y-112018000D03*
X109093000Y-114042000D03*
X109093000Y-112018000D03*
X111633000Y-114042000D03*
X111633000Y-112018000D03*
X114173000Y-114042000D03*
X114173000Y-112018000D03*
D20*
X126742000Y-73883520D03*
X124718000Y-73883520D03*
D21*
X125740160Y-56363680D03*
X125740160Y-54339680D03*
X123179840Y-56358600D03*
X123179840Y-54334600D03*
X157474920Y-56338280D03*
X157474920Y-54314280D03*
X120655080Y-56353520D03*
X120655080Y-54329520D03*
X154940000Y-56353520D03*
X154940000Y-54329520D03*
X152400000Y-56348440D03*
X152400000Y-54324440D03*
D17*
X101600000Y-51435000D03*
X104140000Y-51435000D03*
X106680000Y-51435000D03*
X109220000Y-51435000D03*
X111760000Y-51435000D03*
D22*
X154686000Y-65913000D03*
X154686000Y-70993000D03*
X147066000Y-65913000D03*
X147066000Y-70993000D03*
X89916000Y-110058200D03*
X89916000Y-115138200D03*
X82296000Y-110058200D03*
X82296000Y-115138200D03*
D23*
X89662000Y-125095000D03*
X89662000Y-120015000D03*
X82042000Y-120015000D03*
X82042000Y-122555000D03*
X82042000Y-125095000D03*
D17*
X111754920Y-58369200D03*
X109214920Y-58369200D03*
X106674920Y-58369200D03*
X104134920Y-58369200D03*
X101594920Y-58369200D03*
D24*
X117761500Y-77317000D03*
X118261500Y-77317000D03*
X118761500Y-77317000D03*
X119261500Y-77317000D03*
X119761500Y-77317000D03*
X120261500Y-77317000D03*
X120761500Y-77317000D03*
X121261500Y-77317000D03*
X121761500Y-77317000D03*
X122261500Y-77317000D03*
X122761500Y-77317000D03*
X123261500Y-77317000D03*
X123761500Y-77317000D03*
X124261500Y-77317000D03*
X124761500Y-77317000D03*
X125261500Y-77317000D03*
X125761500Y-77317000D03*
X126261500Y-77317000D03*
X126761500Y-77317000D03*
X127261500Y-77317000D03*
X127761500Y-77317000D03*
X128261500Y-77317000D03*
X128761500Y-77317000D03*
X129261500Y-77317000D03*
X129761500Y-77317000D03*
D25*
X131661500Y-79217000D03*
X131661500Y-79717000D03*
X131661500Y-80217000D03*
X131661500Y-80717000D03*
X131661500Y-81217000D03*
X131661500Y-81717000D03*
X131661500Y-82217000D03*
X131661500Y-82717000D03*
X131661500Y-83217000D03*
X131661500Y-83717000D03*
X131661500Y-84217000D03*
X131661500Y-84717000D03*
X131661500Y-85217000D03*
X131661500Y-85717000D03*
X131661500Y-86217000D03*
X131661500Y-86717000D03*
X131661500Y-87217000D03*
X131661500Y-87717000D03*
X131661500Y-88217000D03*
X131661500Y-88717000D03*
X131661500Y-89217000D03*
X131661500Y-89717000D03*
X131661500Y-90217000D03*
X131661500Y-90717000D03*
X131661500Y-91217000D03*
D24*
X129761500Y-93117000D03*
X129261500Y-93117000D03*
X128761500Y-93117000D03*
X128261500Y-93117000D03*
X127761500Y-93117000D03*
X127261500Y-93117000D03*
X126761500Y-93117000D03*
X126261500Y-93117000D03*
X125761500Y-93117000D03*
X125261500Y-93117000D03*
X124761500Y-93117000D03*
X124261500Y-93117000D03*
X123761500Y-93117000D03*
X123261500Y-93117000D03*
X122761500Y-93117000D03*
X122261500Y-93117000D03*
X121761500Y-93117000D03*
X121261500Y-93117000D03*
X120761500Y-93117000D03*
X120261500Y-93117000D03*
X119761500Y-93117000D03*
X119261500Y-93117000D03*
X118761500Y-93117000D03*
X118261500Y-93117000D03*
X117761500Y-93117000D03*
D25*
X115861500Y-91217000D03*
X115861500Y-90717000D03*
X115861500Y-90217000D03*
X115861500Y-89717000D03*
X115861500Y-89217000D03*
X115861500Y-88717000D03*
X115861500Y-88217000D03*
X115861500Y-87717000D03*
X115861500Y-87217000D03*
X115861500Y-86717000D03*
X115861500Y-86217000D03*
X115861500Y-85717000D03*
X115861500Y-85217000D03*
X115861500Y-84717000D03*
X115861500Y-84217000D03*
X115861500Y-83717000D03*
X115861500Y-83217000D03*
X115861500Y-82717000D03*
X115861500Y-82217000D03*
X115861500Y-81717000D03*
X115861500Y-81217000D03*
X115861500Y-80717000D03*
X115861500Y-80217000D03*
X115861500Y-79717000D03*
X115861500Y-79217000D03*
D26*
X141605000Y-116205000D03*
X144145000Y-116205000D03*
X145415000Y-116205000D03*
X146685000Y-116205000D03*
X147955000Y-116205000D03*
X149225000Y-116205000D03*
X150495000Y-116205000D03*
X150495000Y-109855000D03*
X149225000Y-109855000D03*
X147955000Y-109855000D03*
X146685000Y-109855000D03*
X145415000Y-109855000D03*
X144145000Y-109855000D03*
X142875000Y-109855000D03*
X141605000Y-109855000D03*
X142875000Y-116205000D03*
D27*
X121856500Y-70421500D03*
X126736500Y-70421500D03*
D15*
X75565000Y-127000000D03*
D28*
X121780700Y-114414300D03*
X122880700Y-114414300D03*
X123980700Y-114414300D03*
X125080700Y-114414300D03*
X126180700Y-114414300D03*
X127280700Y-114414300D03*
X128380700Y-114414300D03*
X129480700Y-114414300D03*
X130430700Y-114414300D03*
D29*
X120230700Y-114414300D03*
X131380700Y-118714300D03*
D30*
X131380700Y-124914300D03*
D31*
X131380700Y-129064300D03*
D32*
X117880700Y-129514300D03*
M02*
